<?xml version="1.0" encoding="UTF-8" standalone="no"?>
<svg
   width="249"
   height="268"
   viewBox="0 0 249 268"
   fill="none"
   version="1.1"
   id="svg28"
   sodipodi:docname="AnarchoCapitalism_Waving_Flag_Icon.svg"
   inkscape:version="1.4.3 (0d15f75, 2025-12-25)"
   inkscape:export-filename="../Documents/laff/laf/static/AnarchoCapitalism_Waving_Flag_Icon.svg"
   inkscape:export-xdpi="96"
   inkscape:export-ydpi="96"
   xmlns:inkscape="http://www.inkscape.org/namespaces/inkscape"
   xmlns:sodipodi="http://sodipodi.sourceforge.net/DTD/sodipodi-0.dtd"
   xmlns="http://www.w3.org/2000/svg"
   xmlns:svg="http://www.w3.org/2000/svg">
  <sodipodi:namedview
     id="namedview28"
     pagecolor="#ffffff"
     bordercolor="#000000"
     borderopacity="0.25"
     inkscape:showpageshadow="2"
     inkscape:pageopacity="0.0"
     inkscape:pagecheckerboard="0"
     inkscape:deskcolor="#d1d1d1"
     inkscape:zoom="1.0109376"
     inkscape:cx="12.859349"
     inkscape:cy="194.8686"
     inkscape:window-width="1470"
     inkscape:window-height="895"
     inkscape:window-x="0"
     inkscape:window-y="33"
     inkscape:window-maximized="1"
     inkscape:current-layer="g46">
    <inkscape:page
       x="0"
       y="0"
       width="249"
       height="268"
       id="page2"
       margin="0"
       bleed="0" />
  </sodipodi:namedview>
  <g
     id="g46"
     transform="translate(298.26449,32.37513)">
    <g
       clip-path="url(#clip0_24_10756)"
       id="g12"
       transform="matrix(0.98393574,0,0,0.98393574,-296.65079,-29.613763)"
       style="stroke:#fbfbfb;stroke-width:2.03265;stroke-dasharray:none;stroke-opacity:1;paint-order:markers fill stroke">
      <path
         fill-rule="evenodd"
         clip-rule="evenodd"
         d="m 105.376,25.5768 c -2.303,-26.70392 -3.527,1.3676 7.198,3.7429 23.985,6.0962 48.802,7.3135 73.418,5.4704 7.514,-0.5626 39.784,-13.0884 40.308,-9.7891 -4.386,8.2018 -7.201,48.577 -4.895,69.0992 -0.258,19.9188 22.83,71.4948 25.625,88.3898 -33.734,-20.193 -58.74,-25.221 -91.269,-15.548 -7.953,2.365 -26.766,3.529 -29.367,-6.622 -1.8,-5.182 -0.897,-9.138 -1.546,-15.259 -1.858,-17.539 1.079,7.517 -3.061,-8.925 -2.98,-11.838 -5.85,-27.759 -8.366,-44.2967 -3.724,-24.4857 -6.67,-50.3236 -8.045,-66.2625 z"
         fill="url(#paint1_linear_24_10756)"
         stroke="url(#paint2_radial_24_10756)"
         stroke-linejoin="bevel"
         id="path2"
         style="fill:url(#paint1_linear_24_10756);stroke:#fbfbfb;stroke-width:2.03265;stroke-dasharray:none;stroke-opacity:1;paint-order:markers fill stroke" />
      <g
         style="mix-blend-mode:overlay;stroke:#fbfbfb;stroke-width:2.03265;stroke-dasharray:none;stroke-opacity:1;paint-order:markers fill stroke"
         id="g3">
        <path
           d="m 221.404,94.1022 c -2.306,-20.5223 0.509,-60.8975 4.895,-69.0992 l -11.024,12.8245 -9.463,14.3466 -4.974,8.8426 c -2.172,3.8609 -4.766,7.4682 -7.735,10.7556 -4.705,5.2086 -10.29,9.5476 -16.5,12.8181 l -2.015,1.0614 c -3.598,1.8944 -7.348,3.4832 -11.211,4.7497 l -6.788,2.2254 c -2.997,0.9822 -6.06,1.7463 -9.167,2.2861 -10.37,1.8019 -21.021,1.0715 -31.048,-2.1291 l -2.954,-0.9426 c 2.516,16.5377 5.386,32.4587 8.366,44.2967 4.14,16.442 1.203,-8.614 3.061,8.925 0.649,6.12 -0.254,10.077 1.546,15.259 2.601,10.151 21.414,8.987 29.367,6.622 32.529,-9.673 57.535,-4.646 91.269,15.548 -2.795,-16.895 -25.883,-68.471 -25.625,-88.3898 z"
           fill="#000000"
           id="path3"
           style="stroke:#fbfbfb;stroke-width:2.03265;stroke-dasharray:none;stroke-opacity:1;paint-order:markers fill stroke" />
      </g>
      <g
         style="mix-blend-mode:overlay;stroke:#fbfbfb;stroke-width:2.03265;stroke-dasharray:none;stroke-opacity:1;paint-order:markers fill stroke"
         id="g5">
        <path
           fill-rule="evenodd"
           clip-rule="evenodd"
           d="m 104.748,19.3059 c -0.502,-4.2551 -0.869,-5.5236 -0.927,-5.094 -0.058,0.4295 0.193,2.5571 0.927,5.094 z"
           fill="url(#paint3_linear_24_10756)"
           id="path4"
           style="fill:url(#paint3_linear_24_10756);stroke:#fbfbfb;stroke-width:2.03265;stroke-dasharray:none;stroke-opacity:1;paint-order:markers fill stroke" />
        <path
           d="m 185.991,34.792 c -24.616,1.8431 -49.433,0.6259 -73.418,-5.4703 -4.283,-0.9487 -6.661,-5.9961 -7.825,-10.0158 0.193,1.6291 0.405,3.696 0.627,6.2729 1.375,15.9388 4.321,41.7767 8.045,66.2625 l 2.954,0.9426 c 10.027,3.2006 20.678,3.931 31.048,2.1291 v 0 c 3.107,-0.5398 6.17,-1.3039 9.167,-2.2861 l 6.788,-2.2254 c 3.863,-1.2664 7.613,-2.8553 11.211,-4.7497 l 2.015,-1.0614 c 6.21,-3.2705 11.795,-7.6095 16.5,-12.8181 v 0 c 2.969,-3.2874 5.563,-6.8947 7.735,-10.7556 l 4.974,-8.8426 9.463,-14.3466 11.024,-12.8245 c -0.306,-1.9224 -11.388,1.5276 -22.071,4.8534 -7.653,2.3822 -15.101,4.7008 -18.237,4.9356 z"
           fill="#fdfd00"
           id="path5"
           style="stroke:#fbfbfb;stroke-width:2.03265;stroke-dasharray:none;stroke-opacity:1;paint-order:markers fill stroke" />
      </g>
      <path
         fill-rule="evenodd"
         clip-rule="evenodd"
         d="m 105.375,25.5788 c -2.303,-26.70396 -3.527,1.3676 7.198,3.7429 23.985,6.0962 48.802,7.3134 73.418,5.4703 7.514,-0.5626 39.784,-13.0884 40.308,-9.789 -4.386,8.2017 -7.201,48.5769 -4.895,69.0992 -0.258,19.9188 22.83,71.4948 25.625,88.3898 -33.734,-20.194 -58.74,-25.221 -91.269,-15.548 -7.953,2.365 -26.766,3.529 -29.367,-6.622 -1.8,-5.182 -0.897,-9.139 -1.546,-15.259 -1.858,-17.539 1.079,7.517 -3.061,-8.925 -2.98,-11.838 -5.85,-27.759 -8.366,-44.2967 -3.724,-24.4858 -6.67,-50.3237 -8.045,-66.2625 z"
         stroke="#c2ac02"
         stroke-linejoin="bevel"
         id="path6"
         style="stroke:#fbfbfb;stroke-width:2.03265;stroke-dasharray:none;stroke-opacity:1;paint-order:markers fill stroke" />
      <path
         d="m 226.299,25.0029 c -4.386,8.2018 -7.201,48.577 -4.895,69.0992 -0.258,19.9189 22.83,71.4949 25.625,88.3899 -33.734,-20.194 -58.74,-25.221 -91.269,-15.548 -7.953,2.365 -26.766,3.529 -29.367,-6.622 -1.8,-5.182 -0.897,-9.139 -1.546,-15.259"
         stroke="#000000"
         stroke-linejoin="bevel"
         id="path7"
         style="stroke:#fbfbfb;stroke-width:2.03265;stroke-dasharray:none;stroke-opacity:1;paint-order:markers fill stroke" />
      <path
         fill-rule="evenodd"
         clip-rule="evenodd"
         d="M 9.16138,12.2965 C 26.446,15.5153 55.3385,18.1389 64.333,14.9431 73.3276,11.7474 82.6241,5.51841 93.2422,2.32084 104.166,-0.968644 108.781,3.28084 110.343,13.9252 114.2,50.4099 124.183,115.399 125.002,146.256 118.081,131.605 97.3228,134.1 61.6864,167.429 61.6591,154.971 63.0949,114.861 48.8605,87.6232 34.6262,60.3858 31.7487,45.4202 24.6339,35.7089 17.519,25.9976 9.79592,17.906 9.16138,12.2965 Z"
         fill="url(#paint4_linear_24_10756)"
         stroke="url(#paint5_radial_24_10756)"
         stroke-linejoin="bevel"
         id="path8"
         style="fill:url(#paint4_linear_24_10756);stroke:#fbfbfb;stroke-width:2.03265;stroke-dasharray:none;stroke-opacity:1;paint-order:markers fill stroke" />
      <g
         style="mix-blend-mode:overlay;stroke:#fbfbfb;stroke-width:2.03265;stroke-dasharray:none;stroke-opacity:1;paint-order:markers fill stroke"
         id="g9">
        <path
           d="M 61.6852,167.427 C 97.3216,134.099 118.08,131.603 125,146.254 c -0.286,-10.785 -1.691,-25.739 -3.564,-42.188 l -2.418,-0.686 c -3.762,-1.068 -7.741,-1.406 -11.631,-1.006 -5.681,0.584 -11.1571,2.763 -15.6622,6.273 -2.4442,1.905 -4.5831,4.172 -6.3427,6.722 l -4.0315,5.844 c -2.5013,3.626 -4.6854,7.46 -6.5279,11.461 l -6.2537,13.58 z"
           fill="#000000"
           id="path9"
           style="stroke:#fbfbfb;stroke-width:2.03265;stroke-dasharray:none;stroke-opacity:1;paint-order:markers fill stroke" />
      </g>
      <g
         style="mix-blend-mode:overlay;stroke:#fbfbfb;stroke-width:2.03265;stroke-dasharray:none;stroke-opacity:1;paint-order:markers fill stroke"
         id="g10">
        <path
           d="m 64.3318,14.9414 c -8.9945,3.1958 -37.887,0.5722 -55.17164,-2.6466 0.63454,5.6095 8.35764,13.701 15.47254,23.4124 7.1148,9.7113 9.9922,24.6769 24.2266,51.9143 14.2344,27.2375 12.7986,67.3485 12.8259,79.8055 l 6.8838,-21.173 6.2537,-13.58 c 1.8425,-4.001 4.0266,-7.835 6.5279,-11.461 l 4.0315,-5.844 c 1.7596,-2.55 3.8985,-4.817 6.3427,-6.722 4.5051,-3.51 9.9812,-5.689 15.6622,-6.273 3.89,-0.4 7.869,-0.062 11.631,1.006 l 2.418,0.686 c -0.218,-1.919 -0.443,-3.858 -0.673,-5.8132 -0.513,-4.358 -1.052,-8.7959 -1.606,-13.2669 C 115.993,59.4575 112.343,32.8537 110.342,13.9235 108.78,3.27913 104.164,-0.970353 93.241,2.31913 82.6229,5.5167 73.3264,11.7457 64.3318,14.9414 Z"
           fill="#fdfd00"
           id="path10"
           style="stroke:#fbfbfb;stroke-width:2.03265;stroke-dasharray:none;stroke-opacity:1;paint-order:markers fill stroke" />
      </g>
      <path
         fill-rule="evenodd"
         clip-rule="evenodd"
         d="M 9.16016,12.2948 C 26.4448,15.5136 55.3373,18.1372 64.3318,14.9414 73.3264,11.7457 82.6229,5.5167 93.241,2.31913 104.164,-0.970353 108.78,3.27913 110.342,13.9235 114.199,50.4082 124.182,115.397 125,146.254 118.08,131.603 97.3216,134.099 61.6852,167.427 61.6579,154.97 63.0937,114.859 48.8593,87.6215 34.6249,60.3841 31.7475,45.4185 24.6327,35.7072 17.5178,25.9958 9.7947,17.9043 9.16016,12.2948 Z"
         stroke="#c2ac02"
         stroke-linejoin="bevel"
         id="path11"
         style="stroke:#fbfbfb;stroke-width:2.03265;stroke-dasharray:none;stroke-opacity:1;paint-order:markers fill stroke" />
      <path
         d="M 61.6853,167.427 C 97.3217,134.098 118.08,131.603 125,146.254 c -0.285,-10.766 -1.686,-25.687 -3.554,-42.102 -0.393,-3.458 -0.807,-6.9811 -1.236,-10.546"
         stroke="#000000"
         stroke-linejoin="bevel"
         id="path12"
         style="stroke:#fbfbfb;stroke-width:2.03265;stroke-dasharray:none;stroke-opacity:1;paint-order:markers fill stroke" />
      <path
         d="M 10.154664,11.227063 C 9.4376741,9.1176634 7.2436241,8.2204934 5.2541341,9.2231334 3.2646441,10.225763 2.2330779,12.748563 2.9500751,14.857863 L 85.2965,262.475 c 0.717,2.109 2.911,3.006 4.9005,2.004 1.9895,-1.003 3.0211,-3.526 2.3041,-5.635 z"
         fill="url(#paint0_linear_24_10756)"
         id="path1"
         style="fill:url(#paint0_linear_24_10756);stroke:#fbfbfb;stroke-width:2.03265;stroke-dasharray:none;stroke-opacity:1;paint-order:markers fill stroke"
         sodipodi:nodetypes="csccccc" />
    </g>
    <g
       clip-path="url(#clip0_24_10756)"
       id="g57"
       transform="matrix(0.98393574,0,0,0.98393574,147.23052,-15.064374)">
      <g
         id="path47"
         style="opacity:1" />
      <g
         style="mix-blend-mode:overlay"
         id="g48" />
      <g
         style="mix-blend-mode:overlay"
         id="g50" />
      <g
         id="path53"
         style="opacity:1" />
      <g
         style="mix-blend-mode:overlay"
         id="g54" />
      <g
         style="mix-blend-mode:overlay"
         id="g55" />
    </g>
  </g>
  <defs
     id="defs28">
    <linearGradient
       id="paint0_linear_24_10756"
       x1="43.0186"
       y1="138.09599"
       x2="50.583302"
       y2="135.52499"
       gradientUnits="userSpaceOnUse">
      <stop
         stop-color="#783000"
         id="stop12" />
      <stop
         offset="0.75"
         id="stop13" />
      <stop
         offset="1"
         stop-color="#642800"
         id="stop14" />
    </linearGradient>
    <linearGradient
       id="paint1_linear_24_10756"
       x1="116.574"
       y1="98.310303"
       x2="221.69299"
       y2="94.320602"
       gradientUnits="userSpaceOnUse">
      <stop
         stop-color="#969696"
         id="stop15" />
      <stop
         offset="0.52"
         stop-color="#6A6A6A"
         id="stop16" />
      <stop
         offset="0.67"
         stop-color="#6A6A6A"
         id="stop17" />
      <stop
         offset="1"
         stop-color="#969696"
         id="stop18" />
    </linearGradient>
    <linearGradient
       id="paint3_linear_24_10756"
       x1="116.573"
       y1="98.312202"
       x2="221.692"
       y2="94.322601"
       gradientUnits="userSpaceOnUse">
      <stop
         stop-color="#323232"
         id="stop21" />
      <stop
         offset="0.52"
         id="stop22" />
      <stop
         offset="0.67"
         id="stop23" />
      <stop
         offset="1"
         stop-color="#323232"
         id="stop24" />
    </linearGradient>
    <linearGradient
       id="paint4_linear_24_10756"
       x1="48.975201"
       y1="87.787399"
       x2="117.857"
       y2="77.994797"
       gradientUnits="userSpaceOnUse">
      <stop
         stop-color="#969696"
         id="stop25" />
      <stop
         offset="1"
         stop-color="#6A6A6A"
         id="stop26" />
    </linearGradient>
    <clipPath
       id="clip0_24_10756">
      <rect
         width="249"
         height="268"
         fill="#ffffff"
         id="rect28"
         x="0"
         y="0" />
    </clipPath>
  </defs>
</svg>
