<?xml version="1.0" encoding="UTF-8" standalone="no"?>
<!-- Created with Inkscape (http://www.inkscape.org/) -->

<svg
   version="1.1"
   id="svg1"
   width="1327.9336"
   height="804.57141"
   viewBox="0 0 1327.9336 804.57141"
   sodipodi:docname="vecteezy_collection-of-cartoon-christmas-hat-illustrations_14940207.eps"
   xml:space="preserve"
   xmlns:inkscape="http://www.inkscape.org/namespaces/inkscape"
   xmlns:sodipodi="http://sodipodi.sourceforge.net/DTD/sodipodi-0.dtd"
   xmlns="http://www.w3.org/2000/svg"
   xmlns:svg="http://www.w3.org/2000/svg"><defs
     id="defs1"><linearGradient
       id="swatch64"
       inkscape:swatch="solid"><stop
         style="stop-color:#ffcd00;stop-opacity:1;"
         offset="0"
         id="stop64" /></linearGradient><linearGradient
       id="swatch25"
       inkscape:swatch="solid"><stop
         style="stop-color:#ffff00;stop-opacity:1;"
         offset="0"
         id="stop25" /></linearGradient></defs><sodipodi:namedview
     id="namedview1"
     pagecolor="#505050"
     bordercolor="#eeeeee"
     borderopacity="1"
     inkscape:showpageshadow="0"
     inkscape:pageopacity="0"
     inkscape:pagecheckerboard="0"
     inkscape:deskcolor="#505050"><inkscape:page
       x="0"
       y="0"
       width="1327.9336"
       height="804.57141"
       id="page2"
       margin="0"
       bleed="0" /></sodipodi:namedview><g
     id="g1"
     inkscape:groupmode="layer"
     inkscape:label="1"
     transform="translate(-5752.2119,2606.4045)"><g
       id="g166"
       transform="matrix(0.49647591,0,0,0.49647591,2799.6514,-1880.7234)"
       inkscape:export-filename="../laf-app/laf-main/src/lib/assets/hatlaf.svg"
       inkscape:export-xdpi="96"
       inkscape:export-ydpi="96"><path
         style="fill:#ffd500;fill-opacity:1;stroke:none;stroke-width:0.444582"
         d="m 3508.3256,-22.036659 c -53.0043,-4.92698 -101.674,-27.81599 -138.5423,-65.15506 -31.6465,-32.050451 -52.4745,-72.433791 -59.9804,-116.296051 -2.3396,-13.67278 -2.6923,-18.47427 -2.6923,-36.65994 0,-18.18565 0.3527,-22.98715 2.6923,-36.65992 13.839,-80.87065 72.6881,-147.55081 152.0152,-172.24436 21.6984,-6.75438 42.7559,-9.89615 66.3267,-9.89586 19.2652,2.4e-4 34.6713,1.76567 52.401,6.00481 33.3973,7.98518 63.2201,22.98784 91.0021,45.77978 6.2382,5.1177 20.6647,19.44533 26.0188,25.84041 24.1612,28.85955 39.6871,60.18199 47.3018,95.42889 3.5759,16.55151 4.4896,25.8633 4.4896,45.74625 0,19.88295 -0.9137,29.19475 -4.4896,45.74626 -9.1242,42.23491 -30.7467,80.89609 -62.1181,111.068911 -35.6131,34.25255 -79.9432,54.98934 -130.1536,60.88381 -8.718,1.02338 -35.0573,1.26856 -44.2712,0.41207 z m 33.1386,-44.86034 c 32.4513,-2.54623 62.3114,-13.2095 88.4956,-31.60252 5.5794,-3.919241 15.9102,-12.205541 17.9876,-14.427881 l 0.9946,-1.06394 -20.8943,-41.85844 -20.8945,-41.85843 -77.363,-0.004 -77.363,-0.004 -20.9059,42.99677 c -11.4983,23.6482 -20.8972,43.1897 -20.8861,43.42553 0.023,0.50786 6.6861,6.07751 12.0542,10.07656 26.828,19.985581 60.2696,32.288961 93.6852,34.467361 5.3943,0.35169 19.8081,0.26706 25.0893,-0.14731 z m -98.7046,-215.317911 c 34.7085,-71.39154 63.1062,-129.9344 63.1062,-130.09526 0,-0.34185 -1.6349,-0.11106 -9.8381,1.38897 -34.425,6.29477 -65.1226,22.09182 -90.5029,46.57304 -29.2316,28.19633 -46.9577,63.75446 -51.9998,104.31077 -0.6053,4.86707 -0.7967,9.65208 -0.7967,19.88968 0,10.2376 0.1914,15.02263 0.7967,19.88969 2.9755,23.93408 10.4125,46.26445 22.1226,66.42428 l 2.512,4.32431 0.7466,-1.45134 c 0.4108,-0.79825 29.1447,-59.86262 63.8534,-131.25414 z m 242.3532,120.35542 c 9.1848,-17.88369 14.6869,-35.68591 17.5722,-56.85156 0.8862,-6.49995 1.024,-9.39264 1.0205,-21.43666 0,-11.75666 -0.1552,-15.0574 -0.9773,-21.21565 -2.8026,-20.99648 -8.0978,-38.21703 -17.3964,-56.57508 -8.5375,-16.85521 -18.0103,-29.93401 -31.6494,-43.6973 -25.6616,-25.89511 -56.8196,-42.39108 -93.151,-49.3171 -6.0679,-1.15673 -8.1582,-1.36688 -8.1582,-0.82015 0,0.69202 112.621,228.19665 125.646,253.8166 2.1235,4.17668 2.4073,4.54369 2.9482,3.81243 0.3292,-0.44504 2.1948,-3.91703 4.1454,-7.71553 z m -102.9156,-86.13359 c -1.3095,-2.61328 -13.7374,-27.77202 -27.6174,-55.90832 -13.88,-28.1363 -25.337,-51.15578 -25.46,-51.1544 -0.1728,0.002 -44.8788,91.65879 -52.8527,108.35906 l -1.6495,3.45508 h 54.9802 54.9802 z"
         id="path163"
         transform="matrix(2.5233206,0,0,2.5233206,-1582.7437,213.19321)" /><path
         style="font-weight:bold;font-size:432.77px;line-height:1;font-family:'Libre Baskerville';-inkscape-font-specification:'Libre Baskerville Bold';text-align:center;text-anchor:middle;fill:#ffd500;fill-rule:evenodd;stroke-width:1.38903;stroke-linecap:round;stroke-linejoin:round;paint-order:markers stroke fill"
         d="m 3889.142,-149.61803 q 0,15.37203 2.0226,25.08068 2.0227,9.30413 8.0906,14.56298 6.4724,4.85433 17.7992,6.87697 11.7312,2.02263 31.1486,2.42716 v 16.181091 h -161.0019 v -16.181091 q 13.3494,-0.40453 21.8445,-2.42716 8.4951,-2.02264 12.9448,-6.87697 4.4499,-4.85432 6.068,-13.75392 1.6181,-8.8996 1.6181,-23.05805 v -186.89158 q 0,-14.15845 -1.6181,-22.65352 -1.2136,-8.8996 -5.2589,-13.75393 -4.0452,-5.25885 -11.7313,-6.87696 -7.2815,-2.02264 -19.4173,-2.83169 v -16.18109 h 247.5707 l 4.8543,85.35525 h -16.9902 q -2.4271,-17.39467 -7.2814,-29.12596 -4.4498,-12.13582 -12.9449,-19.41731 -8.4951,-7.68602 -21.8445,-10.92224 -13.3494,-3.23621 -32.7666,-3.23621 h -55.8248 q -7.2815,0 -7.2815,6.87696 v 116.90836 q 24.6761,0 40.0482,-2.02264 15.7765,-2.02263 25.0806,-7.68601 9.3042,-6.06791 13.3494,-16.18108 4.0453,-10.11319 5.6634,-26.6988 h 14.9675 v 126.61701 h -14.9675 q -2.4271,-16.99014 -6.8769,-27.10332 -4.4498,-10.51771 -13.754,-15.77656 -8.8995,-5.66339 -24.2716,-7.68602 -15.372,-2.02264 -39.2391,-2.02264 z"
         id="path164"
         transform="matrix(2.5233206,0,0,2.5233206,-1582.7437,213.19321)" /><path
         style="font-weight:bold;font-size:432.77px;line-height:1;font-family:'Libre Baskerville';-inkscape-font-specification:'Libre Baskerville Bold';text-align:center;text-anchor:middle;fill:#ffd500;fill-rule:evenodd;stroke-width:1.38903;stroke-linecap:round;stroke-linejoin:round;paint-order:markers stroke fill"
         d="m 3262.7951,-84.489149 h -278.7192 v -16.181091 q 13.3494,-0.40453 21.8445,-2.42716 8.495,-2.02264 12.9448,-6.87697 4.4499,-4.85432 6.068,-13.75392 1.618,-8.8996 1.618,-23.05805 v -186.89158 q 0,-14.15845 -1.618,-22.65352 -1.2137,-8.8996 -5.259,-13.75393 -4.0452,-5.25885 -11.7312,-6.87696 -7.2815,-2.02264 -19.4173,-2.83169 v -16.18109 h 139.5619 v 16.18109 q -13.754,0.40453 -22.2491,2.42716 -8.0905,2.02264 -12.5402,7.28149 -4.4499,5.25886 -6.068,14.56298 -1.2136,9.30413 -1.2136,24.67616 v 169.49691 q 0,16.99014 3.2363,27.91237 3.6407,10.51771 12.1358,16.58562 8.495,5.66338 22.6535,8.09055 14.1584,2.02263 35.1939,2.02263 23.4625,0 39.2391,-2.83169 15.7766,-2.83169 26.2943,-10.51771 10.9222,-8.09054 17.3946,-21.43994 6.4725,-13.3494 10.9223,-34.78934 h 16.1811 z"
         id="path165"
         transform="matrix(2.5233206,0,0,2.5233206,-1582.7437,213.19321)" /><path
         id="path39"
         d="m 7553.6554,-1071.5835 c -344.12,-39.3334 -626.72,91.89327 -626.72,91.89327 -11.0534,29.8933 -15.7734,50.0667 -16.0134,51.0933 -9.2533,-4.64 -18.2933,-8.0533 -26.3866,-10.52 -8.04,-2.48 -15.1734,-4.04 -20.72,-5.0133 -7.5334,-1.3467 -12.1467,-1.6133 -12.1467,-1.6133 0,0 -47.72,-238.06667 -5.9067,-320.50667 68.8267,-135.68 198.6,-222.2 442.44,-178.9467 71.0667,12.6134 123.2667,49.6 161.52,95.7067 8.2667,9.96 15.8934,20.3333 22.9067,30.9867 72.0133,109.2266 81.0267,246.92 81.0267,246.92"
         style="fill:#d92938;fill-opacity:1;fill-rule:nonzero;stroke:none;stroke-width:0.133333" /><path
         id="path40"
         d="m 6989.3087,-790.39693 c 0,0 -3.6533,3.6534 -9.8133,9.5067 -15.6667,14.84 -47.5467,43.84 -76.5334,62.6133 -1.3733,0.8934 -2.7466,1.76 -4.1066,2.6 -41.2934,25.5734 -139.6134,33.4267 -173.04,-33.4266 -30.04,-60.08 1.8533,-198.0134 92.8666,-201.0534 10.24,-0.3333 21.24,1.0267 32.9867,4.4134 0,0 28.3067,1.6266 59.2533,17.1466 14.1734,7.12 28.8934,17.1467 41.6934,31.2667 20.8933,23.0267 36.6933,56.9733 36.6933,106.9333"
         style="fill:#f2f2f2;fill-opacity:1;fill-rule:nonzero;stroke:none;stroke-width:0.133333" /><path
         id="path41"
         d="m 7427.802,-857.25023 c -67.1866,-6.48 -153.36,3.7067 -231.5066,17.9467 -111.6934,20.32 -206.9867,48.9066 -206.9867,48.9066 0,-49.96 -15.8,-83.9066 -36.6933,-106.9333 -12.8,-14.12 -27.52,-24.1467 -41.6934,-31.2667 0.24,-1.0266 4.96,-21.2 16.0134,-51.0933 0,0 282.6,-131.22667 626.72,-91.89327 82.5866,19.6666 72.7599,121.38657 72.7599,121.38657 0,0 31.4534,10.36 41.2934,69.3467 9.8266,59 -76.6934,39.3333 -239.9067,23.6"
         style="fill:#f2f2f2;fill-opacity:1;fill-rule:nonzero;stroke:none;stroke-width:0.133333" /><path
         id="path42"
         d="m 7553.6554,-1071.5835 c -344.12,-39.3334 -626.72,91.89327 -626.72,91.89327 -11.0534,29.8933 -15.7734,50.0667 -16.0134,51.0933 -9.2533,-4.64 -18.2933,-8.0533 -26.3866,-10.52 42.6266,-187.18657 140.04,-259.07997 209.12,-290.97327 73.4133,-33.88 146.3066,-56.0133 166.56,-35.76 20.2533,20.2533 -53.6134,32 -53.6134,32 l -71.5333,18.8267 c 0,0 139.2933,-13.1734 171.2933,30.12 32,43.2933 11.2267,24.4666 -46.1466,24.4666 -57.3734,0 -164.68,30.6267 -175.9734,55.7867 -11.2933,25.16 106.8134,6.3333 205.88,-4.96 99.0667,-11.2933 163.0667,-28.24 196.9467,-16.9467 33.88,11.2934 32.8933,-32 19.28,-77.1733 -13.6267,-45.1733 -34.3333,-114.8267 -34.3333,-114.8267 0,0 0.2133,0.013 0.6133,0.053 72.0133,109.2267 81.0267,246.9201 81.0267,246.9201"
         style="fill:#bf0f0f;fill-opacity:1;fill-rule:nonzero;stroke:none;stroke-width:0.133333" /><path
         id="path43"
         d="m 6863.8154,-944.14353 c -7.5334,-1.3334 -12.1467,-1.6 -12.1467,-1.6 v 0 c 0,0 -23.0667,-115.09337 -23.0667,-212.94667 0,-42.88 4.4267,-82.44 17.16,-107.56 56.6934,-111.76 154.7467,-190.1733 323.8267,-190.1733 36.1867,0 75.6133,3.6 118.6133,11.2266 71.0667,12.6134 123.2667,49.6 161.52,95.7067 -54.04,-34.0133 -160.7866,-73.64 -258.0666,-83.8933 -7.8534,-0.8267 -15.9334,-1.24 -24.16,-1.24 -104.0267,0 -233.5067,64.3333 -282.96,148.0666 -49.7867,84.28 -31.0934,188.24 -20.72,342.41337"
         style="fill:#e95f71;fill-opacity:1;fill-rule:nonzero;stroke:none;stroke-width:0.133333" /><path
         id="path44"
         d="m 6902.962,-718.27693 c 1.3867,-10.0666 5.1867,-23.4133 14.16,-39.3333 21.0667,-37.4133 18.4134,-50.8267 18.4134,-92.24 0,-41.4133 -47.0534,-58.3467 -113.72,-95 0,0 -1.12,-1.88 -3.1334,-5.3067 1,-0.04 2,-0.053 3.0134,-0.053 9.3733,0 19.3733,1.4133 29.9733,4.4667 v 0 c 0,0 4.6133,0.2666 12.1467,1.6133 0,-0.013 0,0 0,-0.013 5.5466,0.9866 12.68,2.5466 20.72,5.0133 0,0.013 0,0.013 0,0.013 3.4666,1.0534 7.1066,2.28 10.8666,3.7067 0.027,0.013 0.053,0.027 0.08,0.027 0.013,0.013 0.04,0.027 0.067,0.027 2.7333,1.04 5.52,2.1867 8.36,3.44 0,0 0.013,0.013 0.013,0.013 0.053,0.027 0.1067,0.04 0.16,0.067 0.013,0.013 0.013,0.013 0.013,0.013 0.1466,0.067 0.2933,0.1333 0.44,0.2 0.04,0.013 0.08,0.027 0.1066,0.04 0.04,0.013 0.067,0.027 0.093,0.04 0.04,0.013 0.08,0.04 0.12,0.053 0.027,0.013 0.04,0.027 0.053,0.027 0.053,0.027 0.12,0.053 0.16,0.08 0.027,0 0.04,0.013 0.053,0.013 1.7067,0.7733 3.4267,1.5867 5.1467,2.44 0,0 0,0 0.013,0 0.067,0.04 0.12,0.067 0.1867,0.1067 0.013,0 0.027,0.013 0.04,0.013 0.053,0.027 0.12,0.053 0.1733,0.093 0.013,0 0.027,0.013 0.04,0.013 0.067,0.04 0.1334,0.067 0.2,0.1066 v 0 0 c 14.1734,7.12 28.8934,17.1467 41.6934,31.2667 v 0 c 0.36,1.7733 0.9466,3.1867 1.7466,4.1867 7.5334,9.4133 37.2,66.32 29.5867,100.5466 -0.8,3.6267 -2.3467,7.5734 -4.4533,11.7067 v 0 c -15.6667,14.84 -47.5467,43.84 -76.5334,62.6133"
         style="fill:#dadbdc;fill-opacity:1;fill-rule:nonzero;stroke:none;stroke-width:0.133333" /><path
         id="path45"
         d="m 7196.2954,-839.30353 c 10.6,-14.8 23.3066,-28.0267 36.6533,-35.0134 39.5333,-20.7066 214.5867,-16.9466 237.1867,-20.7066 19.8133,-3.3067 -37.12,-13.8534 -79.3467,-13.8534 -5.92,0 -11.56,0.2134 -16.6533,0.68 -4.2267,0.3734 -8.3734,0.5734 -12.3867,0.5734 -35.3467,0 -60.4933,-14.4667 -38.44,-36.5067 24.08,-24.08 75.1867,-24.3067 137.5333,-24.3067 1.2134,0 2.4267,0 3.64,0 64,0 83.2934,-9.4133 83.2934,-29.2 0,-19.79997 -72,-21.62657 -158.5867,-31.71997 -6.68,-0.7866 -14.5333,-1.1466 -23.3333,-1.1466 -105.3334,0 -348,51.93327 -376.5467,65.82657 -27.6533,13.4667 -39.8,52.5067 -36.6933,67.3467 -12.8,-14.12 -27.52,-24.1467 -41.6934,-31.2667 0.24,-1.0266 4.96,-21.2 16.0134,-51.0933 0,0 213.72,-99.22667 495.7333,-99.25327 0.013,0 0.04,0 0.067,0 h 0.013 c 41.5733,0 84.6667,2.16 128.7333,7.1066 0.7334,0.08 1.44,0.16 2.1734,0.2534 66.7066,15.88 73.1199,85.27997 73.1199,111.39997 0,6.2133 -0.36,9.9866 -0.36,9.9866 v 0 0 c 0,0 31.4534,10.36 41.2934,69.3467 0.5066,3.0133 0.76,5.8267 0.76,8.44 0.013,23.6533 -20.36,31.4 -59.1334,31.4 -40.8399,0 -102.0933,-8.5867 -181.5333,-16.24 -14.1866,-1.3733 -29.24,-2 -44.88,-2 -58.36,0 -124.9866,8.7067 -186.6266,19.9467"
         style="fill:#dadbdc;fill-opacity:1;fill-rule:nonzero;stroke:none;stroke-width:0.133333" /><path
         id="path48"
         d="m 7657.9887,-857.53023 c -16.64,17.6267 -73.9734,11.4533 -160.7733,2.1067 -20.68,-2.2267 -44.1334,-4.76 -68.8934,-7.1334 -84.96,-8.2 -200.28,10.4934 -282.0533,27.6134 -72.52,15.1866 -132.2267,31.8533 -151.7333,37.4666 -2.2534,-74 -39.7334,-111.7466 -71.32,-130.48 -2.04,-1.2133 -4.0667,-2.3466 -6.0934,-3.4266 1.8534,-7.0934 6.3334,-23.1334 14.1067,-44.3867 12.3467,-5.4933 79.96,-34.57327 181.3067,-59.43997 103.2133,-25.32 263.3333,-51.2667 440.1733,-31.12 31.9733,7.72 53.2,29.2267 63.08,63.96 5.6,19.65327 5.84,38.27997 5.5733,46.79997 -28.1867,-0.1867 -167.0133,-0.7467 -252.8666,4.5067 -2.9467,0.1733 -5.1734,2.7066 -5,5.6533 0.1733,2.8267 2.52,5 5.32,5 l 0.3333,-0.013 c 91.16,-5.5734 242.5333,-4.56 256.2133,-4.4534 4.28,1.9067 28.76,14.92 37.08,64.9067 1.6933,10.1333 0.24,17.4667 -4.4533,22.44 z m -761.9333,137.32 c -23.6,14.6133 -70.0134,24.08 -109.5467,12.8667 -26.1733,-7.4267 -44.9867,-22.28 -55.92,-44.1467 -19.2,-38.3867 -12.4267,-115.28 25.3733,-160.72 13.3067,-15.9867 34.6534,-32.6533 65.8534,-32.6533 8.68,0 18.1333,1.2933 28.3733,4.2533 l 0.067,0.013 0.1333,0.027 c 0.28,0.067 0.5733,0.1067 0.8533,0.1333 l 0.12,0.013 c 0.2934,0.027 27.5067,1.8 56.96,16.4933 0.1867,0.1067 0.3867,0.2133 0.6,0.3067 3.0534,1.5333 6.12,3.2133 9.1867,5.04 43.16,25.7466 65.2933,68.1333 65.84,125.9866 -8.68,8.5067 -51.68,49.9734 -87.8933,72.3867 z m -45.5334,-543.63997 c 79.4134,-156.5467 222.28,-214.1467 436.7467,-176.0933 99.12,17.5866 173.16,84.72 220.0533,199.5333 29.56,72.3733 38.36,141.88 40.4534,162.8133 -175.96,-19.0533 -334.92,6.7867 -437.7867,32.0267 -86.44,21.2133 -148.7333,45.5333 -173.4933,55.91997 9.5333,-24.21327 22.7733,-53.23997 40.48,-82.91997 15.6666,-26.28 36.1866,-55.16 62.24,-81.9333 14.2933,-5.7334 136.8,-52.64 241.5066,-20.1467 2.8134,0.88 5.8,-0.6933 6.6667,-3.5067 0.88,-2.8133 -0.6933,-5.8 -3.5067,-6.68 -60,-18.6133 -124.8533,-11.88 -168.6933,-2.96 -23.1067,4.7067 -42.7333,10.4 -56.9467,15.0667 38.9734,-34.72 88.48,-63.52 150.2667,-74.52 2.9067,-0.5067 4.84,-3.28 4.32,-6.1733 -0.52,-2.9067 -3.28,-4.84 -6.1867,-4.32 -53.8533,9.5866 -103.2133,32.8666 -146.72,69.1866 -9.56,7.9867 -18.8266,16.6134 -27.8133,25.84 -0.12,0.12 -0.24,0.24 -0.36,0.36 -23.4933,24.1734 -44.9733,52.48 -64.0933,84.5867 -20.84,34.9867 -35.6134,69.1067 -45.4934,95.75997 -0.1466,0.3067 -0.2666,0.6267 -0.3466,0.9467 -7.5734,20.5066 -12.2,36.4933 -14.4534,44.8533 -22.56,-10.24 -42.7466,-13.4933 -51.2133,-14.4667 -5.88,-31.0666 -43.2533,-238.98657 -5.6267,-313.17327 z m 822.44,382.11997 c -8.28,-49.76 -31.64,-66.84 -40.9867,-71.7867 0.3867,-8.3333 0.4934,-29.0133 -5.84,-51.45327 -10.4533,-37.0933 -33.7466,-61.52 -67.4799,-70.84 -1.6,-17.4667 -9.9334,-91.32 -41.3467,-168.3733 -21.1067,-51.7334 -48.3333,-94.84 -80.96,-128.12 -40.9467,-41.7867 -90.48,-68.08 -147.2133,-78.1467 -115.64,-20.52 -213.2134,-12.8533 -290.0267,22.7867 -67.2,31.1733 -120.4,84.6666 -158.0933,158.9866 -38.2267,75.3467 -4.32,272.18667 3.8266,315.70667 -47.88,-10.4667 -79.0666,12.28 -97.08,33.9467 -18.5066,22.24 -31.3733,53.2666 -36.24,87.36 -4.64,32.5866 -1.1733,63.5466 9.5334,84.9466 12.1466,24.3067 33.7733,41.48 62.5466,49.64 13.24,3.7467 27.0534,5.4 40.6,5.4 30.36,0 59.36,-8.2533 77.4667,-19.4666 38.6533,-23.92 83.16,-67.3067 90.44,-74.52 20.5333,-6.04 280.5467,-81.1867 435.1867,-66.28 24.7066,2.3733 48.12,4.9066 68.7866,7.12 93.16,10.04 149.3867,16.0933 169.6667,-5.3867 7.1333,-7.56 9.4933,-17.8667 7.2133,-31.52"
         style="fill:#231f20;fill-opacity:1;fill-rule:nonzero;stroke:none;stroke-width:0.133333" /></g><circle
       style="fill:none;fill-rule:evenodd;stroke:#000000;stroke-width:1.2;stroke-linecap:round;stroke-linejoin:round;stroke-opacity:1;paint-order:markers fill stroke"
       id="path167"
       cx="6416.1787"
       cy="-2088.1189"
       r="825.10211" /></g></svg>
