<?xml version="1.0" encoding="UTF-8" standalone="no"?>
<!-- Created with Inkscape (http://www.inkscape.org/) -->

<svg
   width="146.33807mm"
   height="50.000046mm"
   viewBox="0 0 146.33807 50.000046"
   version="1.1"
   id="svg1"
   xml:space="preserve"
   xmlns="http://www.w3.org/2000/svg"
   xmlns:svg="http://www.w3.org/2000/svg"><defs
     id="defs1"><linearGradient
       id="swatch64"><stop
         style="stop-color:#ffcd00;stop-opacity:1;"
         offset="0"
         id="stop64" /></linearGradient><linearGradient
       id="swatch25"><stop
         style="stop-color:#ffff00;stop-opacity:1;"
         offset="0"
         id="stop25" /></linearGradient></defs><g
     id="g1"
     transform="matrix(0.26458334,0,0,0.26458333,148.87792,108.20678)"><g
       id="g18"><text
         xml:space="preserve"
         style="font-weight:bold;font-size:232.815px;line-height:237.471px;font-family:'Libre Baskerville';-inkscape-font-specification:'Libre Baskerville Bold';writing-mode:lr-tb;direction:ltr;fill:#fac800;fill-opacity:1;stroke:none;stroke-width:69.1937;stroke-dasharray:none;stroke-opacity:1"
         x="3284.0171"
         y="650.90112"
         id="text13"
         transform="matrix(0.26907252,0,0,0.26907252,-1346.9696,-497.45234)"><tspan
           style="font-size:232.815px;line-height:237.471px;stroke-width:69.1936"
           id="tspan18"
           x="3284.0171"
           y="650.90112">SORULARLA</tspan><tspan
           style="font-size:232.815px;line-height:237.471px;stroke-width:69.1936"
           x="3284.0171"
           y="888.37213"
           id="tspan14">AN-KAP</tspan></text><path
         id="path24-2-7"
         style="fill:#fac800;fill-opacity:1;stroke:none;stroke-width:0.0604907"
         d="m -535.96402,-408.97022 c -11.7557,0 -17.97691,5.04781 -17.97691,14.89472 0,4.20285 1.47608,7.74744 4.42284,10.53049 l 0.0303,0.0284 0.0302,0.0264 c 3.09349,2.60502 6.95066,3.86691 11.51187,3.86691 2.63351,0 5.54105,-0.38716 8.70388,-1.14022 l 0.0246,-0.006 0.0226,-0.006 c 3.12568,-0.85246 6.00627,-1.2688 8.64147,-1.2688 2.58996,0 4.92431,0.52178 7.06823,1.56 2.14393,1.03823 4.10622,2.59994 5.90153,4.74053 l 0.01,0.0113 0.008,0.01 c 3.73787,4.29161 5.58576,9.39375 5.58576,15.55275 0,3.07813 -0.58831,5.68965 -1.72452,7.90401 -1.13621,2.21436 -2.82408,4.0534 -5.15084,5.56495 -4.6535,3.0231 -11.92881,4.66299 -21.82491,4.66299 h -9.16904 v 55.10875 h 17.89938 v -26.65808 c 11.4965,-0.26428 20.66299,-3.67126 27.31234,-10.3206 6.93885,-6.93885 10.33762,-16.49256 10.33762,-28.55656 0,-7.37938 -1.43032,-14.45963 -4.28858,-21.23873 l -0.006,-0.0133 c -0.002,-0.004 -0.004,-0.009 -0.006,-0.0133 -2.70644,-6.75729 -6.46339,-12.76643 -11.27742,-18.03175 -4.81478,-5.26617 -10.31183,-9.4111 -16.4982,-12.43085 -6.21974,-3.18335 -12.74644,-4.77834 -19.58795,-4.77834 z m 4.81615,126.5304 c -3.35017,-3e-5 -6.36407,0.44815 -9.46212,1.41252 -11.31268,3.5215 -19.71366,13.03453 -21.69067,24.58754 -0.3339,1.95143 -0.38763,2.66279 -0.38763,5.23404 0,2.57123 0.0536,3.28433 0.38763,5.23594 1.07253,6.26754 4.0477,12.03213 8.56205,16.6041 5.26389,5.33111 12.20519,8.59177 19.75815,9.29384 1.34329,0.12489 5.01758,0.0953 6.32888,-0.0587 7.1554,-0.84001 13.46362,-3.78752 18.55364,-8.68307 4.4768,-4.30579 7.56313,-9.82415 8.86648,-15.85719 0.51512,-2.38431 0.64669,-3.69845 0.64669,-6.535 0,-2.83657 -0.1316,-4.14894 -0.64669,-6.5331 -1.08918,-5.0416 -3.30557,-9.50873 -6.74299,-13.61457 -0.75987,-0.90762 -2.83228,-2.96943 -3.73266,-3.70808 -3.94901,-3.23971 -8.19725,-5.3802 -12.97165,-6.52176 -2.52903,-0.60468 -4.73721,-0.85655 -7.46911,-0.85658 z m 4.69513,7.42562 h 0.002 l 0.002,0.002 0.002,0.002 c 0.005,0.006 0.0135,0.0207 0.0227,0.053 -0.003,-0.006 -0.007,-0.0127 -0.01,-0.0189 -0.006,-0.0131 -0.0134,-0.026 -0.0189,-0.0379 z m -10.29412,2.33528 c -1.50901,3.11554 -4.24031,8.74125 -7.33675,15.11028 -0.4489,0.92333 -5.27768,10.84803 -7.52772,15.47523 -0.93509,-2.05069 -1.55542,-4.2544 -1.84553,-6.58794 -0.0725,-0.58326 -0.0964,-1.14975 -0.0964,-2.52437 0,-1.37461 0.0239,-1.94284 0.0964,-2.52626 0.64715,-5.20526 2.8932,-9.70273 6.64089,-13.31769 2.88367,-2.78153 6.26909,-4.67321 10.06911,-5.62925 z m 11.47028,0.0681 c 3.92229,1.04331 7.29065,3.00237 10.16743,5.90532 1.76802,1.78413 2.94054,3.40213 4.04277,5.5782 1.19944,2.36805 1.85853,4.50727 2.22182,7.22895 0.10616,0.79543 0.11913,1.10623 0.11913,2.69266 4.7e-4,1.62759 -0.01,1.87243 -0.1248,2.71914 -0.29706,2.17908 -0.79392,4.03335 -1.57702,5.85427 -3.08741,-6.18419 -11.62498,-23.42214 -14.84933,-29.97854 z m -4.59114,6.74489 0.002,0.002 c 0.0211,0.0213 0.1661,0.22351 -0.18152,0.36116 0.0165,-0.0333 0.032,-0.0654 0.0472,-0.0964 0.0185,-0.0376 0.036,-0.0736 0.053,-0.10778 0.0152,-0.0308 0.0297,-0.0609 0.0435,-0.0889 0.0124,-0.0252 0.0246,-0.0471 0.0359,-0.07 z m -2.28233,0.0189 c 0.0111,0.0219 0.0237,0.0439 0.0359,0.0681 0.0139,0.0276 0.0282,0.0565 0.0435,0.0869 -0.0609,-0.0733 -0.0762,-0.13636 -0.0794,-0.15505 z m 1.14589,2.28989 c 0.59055,1.1886 1.33598,2.69366 2.1405,4.32452 1.14657,2.32423 2.3049,4.67232 3.03114,6.14169 h -5.11869 -5.15086 c 1.29671,-2.67689 3.63651,-7.48116 5.09791,-10.46621 z m -9.5302,19.58796 9.60961,0.002 h 9.61908 l 2.43928,4.88611 2.34851,4.7027 c -0.008,0.006 -0.0134,0.011 -0.0208,0.017 -0.51409,0.42076 -1.20118,0.95236 -1.59782,1.23099 -3.352,2.3546 -7.14678,3.71181 -11.31333,4.03899 l -0.002,-0.002 c -0.52864,0.0414 -2.65479,0.0565 -3.20321,0.0208 -4.25272,-0.27724 -8.55378,-1.86081 -11.96758,-4.40394 -0.2312,-0.17223 -0.49079,-0.3756 -0.72612,-0.56538 0.10588,-0.22132 0.22922,-0.47418 0.36495,-0.75636 0.51376,-1.06811 1.22286,-2.53568 2.00437,-4.14298 z m 31.21896,3.54546 c 0.0342,0.0378 0.0493,0.0628 0.053,0.0738 v 0.002 0.002 0.002 0.002 h -0.002 -0.002 l -0.002,-0.002 h -0.002 v -0.002 h -0.002 l -0.002,-0.002 v -0.002 c -9.7e-4,-0.002 -0.004,-0.004 -0.006,-0.006 -0.002,-0.004 -0.005,-0.01 -0.008,-0.0151 -0.004,-0.006 -0.009,-0.0145 -0.0133,-0.0226 -0.005,-0.009 -0.009,-0.0189 -0.0151,-0.0303 z m -36.63642,5.86183 h 0.002 c 0.0227,-0.003 0.0875,0.0199 0.14939,0.14749 -0.008,-0.007 -0.0149,-0.014 -0.0227,-0.0208 -0.0192,-0.0165 -0.0377,-0.0323 -0.0548,-0.0472 -0.0155,-0.0136 -0.0298,-0.0275 -0.0435,-0.0397 -0.0123,-0.0109 -0.0253,-0.0206 -0.0359,-0.0302 v -0.002 -0.002 -0.002 l 0.002,-0.002 h 0.002 0.002 z m 0.24582,1.27826 c -0.005,0.012 -0.009,0.0196 -0.0113,0.0226 h -0.002 c 0.004,-0.008 0.01,-0.0148 0.0133,-0.0226 z" /></g></g></svg>
