<?xml version="1.0" encoding="UTF-8" standalone="no"?>
<!-- Created with Inkscape (http://www.inkscape.org/) -->

<svg
   width="173.45361mm"
   height="50.282501mm"
   viewBox="0 0 173.4536 50.282501"
   version="1.1"
   id="svg1"
   xml:space="preserve"
   sodipodi:docname="Sorularla-ancap.svg"
   inkscape:version="1.4.3 (0d15f75, 2025-12-25)"
   xmlns:inkscape="http://www.inkscape.org/namespaces/inkscape"
   xmlns:sodipodi="http://sodipodi.sourceforge.net/DTD/sodipodi-0.dtd"
   xmlns="http://www.w3.org/2000/svg"
   xmlns:svg="http://www.w3.org/2000/svg"><sodipodi:namedview
     id="namedview1"
     pagecolor="#ffffff"
     bordercolor="#000000"
     borderopacity="0.25"
     inkscape:showpageshadow="2"
     inkscape:pageopacity="0.0"
     inkscape:pagecheckerboard="0"
     inkscape:deskcolor="#d1d1d1"
     inkscape:document-units="mm"
     inkscape:zoom="0.9731457"
     inkscape:cx="263.06441"
     inkscape:cy="234.29174"
     inkscape:window-width="1470"
     inkscape:window-height="895"
     inkscape:window-x="0"
     inkscape:window-y="33"
     inkscape:window-maximized="1"
     inkscape:current-layer="g577" /><defs
     id="defs1" /><g
     id="g1"
     transform="matrix(0.26458334,0,0,0.26458333,148.87792,108.20678)"><g
       id="g18"><text
         xml:space="preserve"
         style="font-weight:bold;font-size:59.8863px;line-height:61.0839px;font-family:'Libre Baskerville';-inkscape-font-specification:'Libre Baskerville Bold';writing-mode:lr-tb;direction:ltr;fill:#fac800;fill-opacity:1;stroke:none;stroke-width:17.7985;stroke-dasharray:none;stroke-opacity:1"
         x="-401.3667"
         y="-319.47217"
         id="text13"><tspan
           style="font-size:59.8863px;line-height:61.0839px;stroke-width:17.7985"
           id="tspan18"
           x="-401.3667"
           y="-319.47217">SORULARLA</tspan><tspan
           style="font-size:59.8863px;line-height:61.0839px;stroke-width:17.7985"
           x="-401.3667"
           y="-258.38821"
           id="tspan14">AVUSTURYAN</tspan></text><g
         id="g577"
         transform="matrix(3.5106191,0,0,3.5106192,-1505.4205,-828.36462)"><path
           id="rect9"
           style="fill:#000000;fill-opacity:1;stroke:#ffffff;stroke-width:0.873125;stroke-dasharray:none"
           d="m 270.1124,120.60651 h 39.43152 v 23.37986 a 29.31875,29.31875 125.31467 0 1 -19.65156,27.73983 l 0,0 A 29.341442,29.341442 54.509132 0 1 270.1124,143.98637 Z"
           transform="translate(0,1.0583333)" /><path
           style="fill:none;stroke:#ffffff;stroke-width:0.873125;stroke-dasharray:none;stroke-opacity:1"
           d="m 289.82819,121.37717 v 51.63346"
           id="path10" /><path
           style="fill:none;stroke:#ffffff;stroke-width:0.873125;stroke-dasharray:none;stroke-opacity:1"
           d="m 269.8555,142.93255 h 39.81682"
           id="path11" /><path
           id="rect10"
           style="fill:#b80233;fill-opacity:1;stroke:none;stroke-width:0.648419;stroke-dasharray:none;stroke-opacity:1"
           d="m 106.79361,276.7546 -5.1966,5.26552 8e-5,46.8258 c 2.92429,-0.41376 5.78228,-1.2729 8.46736,-2.55815 l -3e-4,-46.30545 z"
           transform="rotate(-44.622541)" /><path
           d="m 301.12519,124.0743 c -0.41685,-0.008 -0.95099,0.0376 -1.53041,0.13136 -0.34418,0.0556 -0.36287,0.0621 -0.72567,0.25171 -0.20481,0.10697 -0.37919,0.20563 -0.38751,0.21911 -0.008,0.0135 -0.0321,0.0245 -0.0526,0.0245 -0.0206,0 -0.0609,0.0202 -0.0898,0.0448 -0.0288,0.0246 -0.0967,0.0629 -0.15078,0.0851 -0.17408,0.071 -0.47745,0.24864 -0.47764,0.27947 0,0.0358 0.0599,0.0616 0.14312,0.0616 0.0583,0 0.10513,0.057 0.073,0.089 -0.009,0.009 -0.0667,0.0156 -0.12911,0.0156 -0.0922,0 -0.11339,0.009 -0.11339,0.0476 0,0.0286 0.0339,0.0625 0.0851,0.0851 0.0764,0.0337 0.0847,0.048 0.0822,0.14208 -10e-4,0.0576 -0.0228,0.16945 -0.0472,0.24861 -0.0697,0.22717 -0.0805,0.61725 -0.0307,1.11518 0.0826,0.82557 0.0931,0.91284 0.13166,1.09566 0.055,0.26102 0.31973,0.82156 0.39708,0.84097 0.0771,0.0194 0.11444,-0.005 0.11496,-0.0767 0,-0.0739 0.0388,-0.13397 0.0721,-0.11326 0.0143,0.009 0.0341,0.0691 0.0438,0.13376 0.0296,0.19716 0.20513,0.26803 0.29348,0.1185 0.0254,-0.0431 0.054,-0.0785 0.0634,-0.0785 0.0358,0 0.0889,0.87544 0.0873,1.43928 -10e-4,0.6351 -0.0392,0.97587 -0.15629,1.42154 -0.0347,0.13209 -0.0633,0.25415 -0.0636,0.27123 0,0.017 0.13428,0.11968 0.29901,0.22802 0.1647,0.10827 0.31191,0.22016 0.32709,0.24854 0.0731,0.13675 -0.0235,0.42767 -0.19652,0.59146 -0.14219,0.13455 -0.17705,0.25507 -0.14014,0.48426 0.0149,0.0927 0.0333,0.17482 0.0409,0.18237 0.008,0.008 0.44552,0.0138 0.97325,0.0138 0.87046,0 0.9887,-0.005 1.27358,-0.0568 0.17271,-0.0312 0.34716,-0.0695 0.38766,-0.0851 0.0405,-0.0156 0.11024,-0.0283 0.15498,-0.0283 0.16852,0 0.21905,-0.13082 0.12649,-0.32711 -0.0585,-0.12387 -0.51891,-0.66664 -0.91267,-1.07577 -0.15389,-0.15989 -0.31708,-0.34422 -0.36264,-0.40966 l -0.0828,-0.11902 0.0583,-0.0548 c 0.0321,-0.0302 0.0697,-0.0548 0.0836,-0.0548 0.0302,0 0.34721,0.13345 0.40322,0.16968 0.0216,0.0139 0.10395,0.0581 0.18318,0.0979 0.14486,0.073 0.46855,0.289 0.49567,0.33073 0.008,0.0118 0.0526,0.0418 0.099,0.0657 0.0464,0.0237 0.13599,0.0932 0.19907,0.15416 0.0631,0.061 0.18788,0.1675 0.27738,0.23669 0.20197,0.15613 0.25243,0.2571 0.20075,0.40213 -0.0197,0.0551 -0.0664,0.15781 -0.10421,0.22832 -0.0377,0.0705 -0.0685,0.14264 -0.0685,0.16033 0,0.0177 -0.0176,0.0467 -0.0391,0.0645 -0.0215,0.0178 -0.0911,0.14247 -0.15483,0.27696 -0.10801,0.22799 -0.39374,0.67769 -0.47169,0.74238 -0.0269,0.0224 -0.0497,-0.003 -0.10447,-0.11456 -0.0885,-0.18095 -0.28831,-0.36269 -0.46726,-0.42509 -0.11181,-0.0391 -0.20898,-0.0469 -0.53583,-0.0433 -0.64776,0.007 -1.16518,0.0745 -1.48048,0.19242 -0.25661,0.0961 -0.19459,0.11352 0.34495,0.0971 0.53905,-0.0163 0.61889,-0.003 0.61889,0.10958 0,0.072 -0.005,0.0747 -0.31402,0.18522 -0.19153,0.0684 -0.26093,0.10893 -0.37157,0.21651 -0.20195,0.19646 -0.30236,0.40213 -0.31663,0.64864 -0.0173,0.29927 0.10198,0.65402 0.27359,0.81332 0.19972,0.18544 0.42077,0.2314 1.11462,0.23169 0.26987,9e-5 0.49056,0.009 0.49041,0.0198 -9.8e-4,0.0472 -0.27716,0.38229 -0.40694,0.49317 -0.0783,0.0668 -0.14234,0.13069 -0.14234,0.14178 0,0.03 0.0859,0.0464 0.42084,0.0804 l 0.30313,0.0307 0.23016,-0.13852 c 0.23935,-0.14404 0.30538,-0.15134 0.32225,-0.0357 0.0105,0.0737 -0.17295,0.41288 -0.35272,0.6515 -0.0868,0.11509 -0.2609,0.36244 -0.38707,0.54955 -0.21893,0.32473 -0.49348,0.67572 -0.61215,0.7826 -0.10932,0.0984 -0.0809,0.14658 0.46241,0.78296 0.77722,0.91043 0.88634,1.04536 0.90358,1.11703 0.009,0.0362 0.0506,0.0863 0.0929,0.11128 0.0425,0.025 0.16802,0.14568 0.27906,0.26799 0.11102,0.1223 0.20926,0.22206 0.21829,0.22171 0.009,-3.9e-4 0.12492,-0.2447 0.25755,-0.54301 0.13263,-0.29829 0.38394,-0.86033 0.55848,-1.24893 0.17454,-0.38861 0.47065,-1.09515 0.65801,-1.57011 0.57876,-1.4673 0.59355,-1.52422 0.5019,-1.93132 -0.0621,-0.27582 -0.26863,-0.77699 -0.34852,-0.84583 -0.062,-0.0534 -0.0666,-0.0722 -0.0606,-0.24967 0.009,-0.28858 0.0882,-1.34169 0.10106,-1.35475 3e-5,-2e-5 0,-7e-5 0,-9e-5 0.007,-0.005 0.076,0.059 0.15394,0.14347 0.12991,0.14076 0.15262,0.1547 0.2508,0.1547 0.0882,0 0.12152,-0.0152 0.18236,-0.0832 0.0409,-0.0459 0.0818,-0.12794 0.0908,-0.18257 0.009,-0.0547 0.0266,-0.12283 0.0392,-0.15165 0.0131,-0.0288 0.0358,-0.15832 0.0516,-0.28786 0.0159,-0.12951 0.0513,-0.32382 0.0788,-0.43178 0.12047,-0.47277 0.21472,-2.19254 0.13364,-2.43817 -0.0629,-0.19065 -0.24219,-0.26749 -0.49086,-0.21038 -0.0598,0.0138 -0.12138,0.017 -0.13703,0.008 -0.0156,-0.009 -0.0405,-0.13474 -0.0553,-0.27793 -0.0556,-0.53843 -0.10578,-1.00072 -0.1333,-1.22859 -0.0558,-0.46321 -0.34069,-2.43701 -0.37653,-2.60946 -0.0704,-0.33872 -0.4362,-0.94831 -0.73549,-1.22554 -0.37861,-0.35069 -1.10351,-0.6913 -1.61182,-0.75729 -0.11024,-0.0143 -0.23614,-0.0227 -0.3751,-0.0252 z m 0.008,0.47951 c 0.0768,0.003 0.14244,0.0379 0.27166,0.12138 l 0.16124,0.10421 0.29036,4e-4 c 0.3232,4e-4 0.38014,0.0187 0.48365,0.15507 0.0606,0.0797 0.0624,0.0877 0.016,0.0703 -0.15362,-0.0581 -0.54938,-0.14492 -0.60116,-0.13193 -0.0329,0.008 -0.099,0.0553 -0.14664,0.10461 -0.10225,0.10552 -0.20817,0.1143 -0.44286,0.0372 -0.0792,-0.0261 -0.19199,-0.0602 -0.25066,-0.0756 -0.11404,-0.0303 -0.42974,-0.22164 -0.42974,-0.26051 0,-0.0131 0.0737,-0.0315 0.16355,-0.0414 0.0899,-0.0105 0.23312,-0.0358 0.31818,-0.0575 0.0703,-0.018 0.12033,-0.0278 0.16637,-0.0261 z m 0.24844,3.81076 c 0.0212,0 0.0697,0.0471 0.10788,0.10473 0.0754,0.11404 0.13822,0.1303 0.25172,0.0654 0.0925,-0.053 0.18257,-0.0497 0.18569,0.007 10e-4,0.0252 9.8e-4,0.14589 -10e-4,0.26823 -0.003,0.14223 0.0105,0.26253 0.0355,0.33365 0.0426,0.11929 0.0256,0.13721 -0.0758,0.0802 -0.0288,-0.0161 -0.0936,-0.0612 -0.14393,-0.10002 -0.0503,-0.0388 -0.17258,-0.10277 -0.27156,-0.14199 -0.16043,-0.0637 -0.21338,-0.0713 -0.48805,-0.0709 -0.16943,1.9e-4 -0.35342,0.0118 -0.40883,0.0257 -0.0554,0.0139 -0.1522,0.0326 -0.21508,0.0418 -0.10237,0.0148 -0.11246,0.0118 -0.096,-0.03 0.0105,-0.0257 0.0278,-0.10461 0.0392,-0.17547 0.0266,-0.16485 0.0737,-0.19826 0.27948,-0.19826 0.21861,0 0.40727,-0.0418 0.60192,-0.13355 0.0883,-0.0417 0.1781,-0.0758 0.19933,-0.0758 z m -0.63494,0.92342 c 0.23028,0.004 0.61309,0.15813 1.03141,0.41937 l 0.25934,0.16191 -0.46869,0.0132 c -0.56985,0.016 -0.64133,0.044 -0.58793,0.23029 0.0575,0.20077 0.12375,0.24522 0.43163,0.29005 0.1143,0.0166 0.21176,0.0343 0.21665,0.0392 0.0131,0.0131 -0.19832,0.0646 -0.31968,0.078 -0.0575,0.007 -0.16689,9.9e-4 -0.24293,-0.0118 -0.26685,-0.0455 -0.45344,-0.17844 -0.59692,-0.42534 -0.0515,-0.0886 -0.14237,-0.20353 -0.20195,-0.2555 -0.0992,-0.0865 -0.10578,-0.10002 -0.0782,-0.16034 0.078,-0.17105 0.27898,-0.33036 0.46838,-0.37121 0.0263,-0.005 0.0561,-0.008 0.089,-0.008 z m -3.28095,0.052 c -0.0235,5e-4 -0.0501,0.003 -0.0817,0.007 -0.31372,0.0326 -0.37123,0.0579 -0.43649,0.19248 -0.035,0.0721 -0.0632,0.18792 -0.0695,0.285 l -0.0105,0.16355 h 0.10946 c 0.0602,0 0.13457,-0.0134 0.16529,-0.0299 0.0307,-0.0164 0.17988,-0.0585 0.33151,-0.0935 0.15161,-0.035 0.29054,-0.0759 0.30875,-0.0911 0.0876,-0.0726 -0.005,-0.31257 -0.15206,-0.39355 -0.054,-0.0298 -0.0946,-0.0408 -0.16493,-0.0391 z m 0.21405,0.86112 c -0.0505,-0.004 -0.12099,9.8e-4 -0.21497,0.008 l -0.27844,0.019 -0.0372,0.0893 c -0.0204,0.0491 -0.0961,0.15144 -0.1679,0.22739 -0.13172,0.13926 -0.18585,0.23778 -0.18585,0.3381 0,0.0536 0.007,0.0543 0.3565,0.0367 0.1961,-0.0105 0.37749,-0.0291 0.40301,-0.0427 0.0257,-0.0138 0.0835,-0.12728 0.12951,-0.25433 0.11837,-0.32697 0.14706,-0.41046 -0.004,-0.42094 z m -0.37126,0.99517 c -0.0159,4e-4 -0.0343,0.008 -0.062,0.0212 -0.0467,0.0228 -0.21161,0.0389 -0.47089,0.0463 -0.29062,0.008 -0.39906,0.0198 -0.39906,0.0431 0,0.0533 0.13301,0.36304 0.19079,0.44419 0.0587,0.0826 0.0594,0.0948 0.0305,0.53323 -0.0203,0.30855 0.0253,0.84297 0.0721,0.84297 0.0132,0 0.0497,-0.0135 0.0811,-0.0303 0.13879,-0.0734 0.40302,-0.3399 0.54055,-0.5453 0.16638,-0.24851 0.23124,-0.44923 0.25545,-0.79058 0.0131,-0.18105 0.007,-0.21598 -0.0547,-0.34259 -0.0379,-0.0775 -0.0926,-0.16239 -0.12152,-0.18855 -0.0259,-0.0235 -0.0421,-0.0342 -0.0625,-0.0337 z m 6.8298,0.44936 c 0.005,-5e-5 0.0163,0.005 0.0324,0.0139 0.0889,0.0476 0.21076,0.20877 0.24006,0.31766 0.0211,0.0781 0.0208,0.14495 -9.8e-4,0.24895 -0.0161,0.0776 -0.0341,0.14115 -0.0402,0.14215 -3e-5,0 -8e-5,0 -1.1e-4,0 -0.007,0 -0.0176,-0.0324 -0.0261,-0.072 h 5e-5 c -0.0239,-0.11194 -0.1417,-0.48107 -0.18415,-0.57694 -0.0239,-0.0539 -0.0319,-0.0737 -0.0212,-0.0738 z m -3.91884,0.41502 c 0.15098,-9.8e-4 0.23946,0.10801 0.1413,0.22617 -0.0515,0.062 -0.13945,0.0784 -0.34018,0.0631 -0.0755,-0.005 -0.13739,-0.0189 -0.13739,-0.0292 0,-0.0614 0.14121,-0.21339 0.22325,-0.24047 0.04,-0.0132 0.0781,-0.0193 0.11299,-0.0195 z m -0.60899,0.75747 c 0.0448,0.001 0.0935,0.0231 0.16054,0.0624 0.14526,0.0852 0.18002,0.16682 0.12244,0.28811 -0.0477,0.10054 -0.0608,0.10618 -0.11719,0.0498 -0.0218,-0.0217 -0.11155,-0.0523 -0.19955,-0.0678 -0.1046,-0.0185 -0.17866,-0.0481 -0.21419,-0.086 l -0.0543,-0.0578 0.11574,-0.0967 c 0.0772,-0.0645 0.12872,-0.0942 0.18645,-0.0919 z m -2.41907,1.65843 c -0.007,-1e-4 -0.0105,0.001 -0.0141,0.004 -0.0245,0.0245 -0.0181,0.29971 0.0105,0.45463 0.0368,0.19844 0.18273,0.47687 0.35845,0.68397 0.0824,0.0971 0.15916,0.17663 0.17051,0.17663 0.0118,0 0.0207,-0.13436 0.0207,-0.29859 0,-0.35248 -0.0545,-0.56528 -0.18732,-0.73186 -0.11207,-0.14048 -0.29901,-0.28843 -0.35864,-0.28938 z m 2.15385,4.22715 c -0.38987,-0.005 -0.64289,0.15676 -0.81863,0.52501 -0.0915,0.19167 -0.16165,0.4856 -0.16034,0.67134 9.8e-4,0.1609 0.0889,0.59643 0.13016,0.64619 0.046,0.0555 0.16419,0.0482 0.24452,-0.0149 0.0377,-0.0296 0.11129,-0.13043 0.16366,-0.22402 0.22963,-0.41061 0.43978,-0.60207 0.95914,-0.87399 l 0.22913,-0.12007 -0.11418,-0.0805 c -0.14192,-0.10002 -0.23454,-0.22209 -0.28385,-0.37403 -0.0443,-0.1366 -0.0775,-0.15128 -0.34961,-0.15512 z"
           style="fill:#ffffff;fill-opacity:1;stroke:#ffffff;stroke-width:0.0863567;stroke-dasharray:none;stroke-opacity:1"
           id="path1" /><g
           id="g576"
           transform="matrix(0.0789702,0,0,0.0789702,274.41058,142.90472)"><path
             style="fill:#85ceff;fill-opacity:1"
             d="m 62.705081,-130.09759 c -0.287,-0.285 -1.89104,-1.18727 -3.56453,-2.00505 -1.67349,-0.81779 -5.54302,-2.89628 -8.59896,-4.61887 -3.05593,-1.7226 -6.79926,-3.76712 -8.3185,-4.54339 -2.5021,-1.27846 -4.08937,-2.58546 -3.6606,-3.01423 0.12314,-0.12314 19.79125,4.23402 21.71074,4.80968 0.27744,0.0832 1.13403,1.46581 2.08295,3.36203 0.88645,1.77139 1.83525,3.53675 2.10846,3.92302 1.2528,1.77122 -0.26483,3.57111 -1.75956,2.08681 z"
             id="path486" /><path
             style="fill:#85ceff;fill-opacity:1"
             d="m 68.950461,-129.27685 c -0.35717,-0.66739 -0.42743,-31.48671 -0.0726,-31.84156 0.31486,-0.31486 0.11211,-0.93835 3.62402,11.14461 2.08439,7.17148 2.75728,9.84432 2.63107,10.45105 -0.21398,1.02865 -1.6352,3.61111 -3.47135,6.30767 -0.78151,1.14771 -1.5619,2.61385 -1.7342,3.25808 -0.34114,1.27547 -0.57224,1.43637 -0.97696,0.68015 z"
             id="path484" /><path
             style="fill:#85ceff;fill-opacity:1"
             d="m 71.377531,-126.43499 c -0.46563,-0.47846 -0.41085,-1.14233 0.13229,-1.60326 0.25466,-0.21612 4.27302,-2.51996 8.92969,-5.11964 4.65667,-2.59969 9.53823,-5.37929 10.84792,-6.1769 2.52353,-1.53685 5.58355,-3.02092 6.84575,-3.32009 l 0.76034,-0.18021 -0.87641,1.10654 c -1.86613,2.35619 -6.16148,6.89752 -10.19248,10.77617 l -4.21012,4.051 -3.43958,-0.15516 c -2.68954,-0.12133 -3.75691,-0.065 -4.89479,0.25847 -2.22663,0.63289 -3.52268,0.75347 -3.90261,0.36308 z"
             id="path478" /><path
             style="fill:#85ceff;fill-opacity:1"
             d="m 39.098361,-110.80228 c -0.32742,-0.13161 -0.59531,-0.30953 -0.59531,-0.39537 0,-0.16236 13.92478,-14.66238 14.40907,-15.00432 0.36359,-0.25672 13.90385,-0.26067 13.89282,-0.004 -0.009,0.20073 -13.15133,7.7696 -19.38388,11.16316 -1.86181,1.01374 -3.94541,2.33806 -4.63021,2.94294 -1.72598,1.52455 -2.47398,1.78742 -3.69249,1.29764 z"
             id="path453" /><path
             style="fill:#85ceff;fill-opacity:1"
             d="m 86.340341,-111.02706 -9.97418,-2.54738 -1.50068,-1.98324 c -1.85033,-2.44531 -3.07035,-4.95487 -3.23331,-6.65082 -0.11655,-1.21297 -0.088,-1.28521 0.50545,-1.27973 0.86326,0.008 2.69904,0.87408 4.31089,2.03382 0.73984,0.53233 4.20267,2.53515 7.69517,4.45071 11.68553,6.40927 12.76761,7.04788 13.0712,7.71419 0.15964,0.35037 0.29026,0.69097 0.29026,0.75688 0,0.29853 -1.82959,-0.11024 -11.1648,-2.49443 z"
             id="path450" /><path
             style="fill:#85ceff;fill-opacity:1"
             d="m 67.274521,-90.855859 c -0.0738,-0.12468 -1.58227,-5.24947 -3.35207,-11.388431 l -3.21781,-11.16174 0.90153,-1.27368 c 0.49583,-0.70052 1.5873,-2.52383 2.42547,-4.0518 1.60962,-2.93429 3.20323,-5.45842 3.60163,-5.70464 0.30802,-0.19037 0.31097,32.961911 0.003,33.447991 -0.1251,0.19744 -0.28788,0.25697 -0.36172,0.1323 z"
             id="path411" /><path
             style="fill:#2ab2fe;fill-opacity:1"
             d="m 48.772181,-142.19409 c 0.191,-0.0764 0.4192,-0.067 0.50712,0.0209 0.0879,0.0879 -0.0683,0.15045 -0.34727,0.13896 -0.30822,-0.0127 -0.37091,-0.0754 -0.15985,-0.15985 z"
             id="path574" /><path
             style="fill:#2ab2fe;fill-opacity:1"
             d="m 98.034291,-141.84866 c 0,-0.055 0.20836,-0.26331 0.46302,-0.46302 0.41965,-0.32911 0.429,-0.31975 0.0999,0.0999 -0.34565,0.44073 -0.56292,0.58089 -0.56292,0.36313 z"
             id="path573" /><path
             style="fill:#2ab2fe;fill-opacity:1"
             d="m 96.711381,-140.26116 c 0,-0.0549 0.20835,-0.26331 0.46302,-0.46302 0.41964,-0.32911 0.429,-0.31975 0.0999,0.0999 -0.34564,0.44073 -0.56291,0.58089 -0.56291,0.36313 z"
             id="path572" /><path
             style="fill:#2ab2fe;fill-opacity:1"
             d="m 94.330131,-137.59823 c 0,-0.0455 0.38695,-0.43248 0.85989,-0.85989 l 0.8599,-0.77711 -0.77711,0.8599 c -0.72437,0.80154 -0.94268,0.98151 -0.94268,0.7771 z"
             id="path571" /><path
             style="fill:#2ab2fe;fill-opacity:1"
             d="m 50.144711,-123.62481 c 0.93748,-0.94589 1.76403,-1.71979 1.8368,-1.71979 0.0728,0 -0.63474,0.7739 -1.57222,1.71979 -0.93748,0.94589 -1.76403,1.71979 -1.83679,1.71979 -0.0728,0 0.63473,-0.7739 1.57221,-1.71979 z"
             id="path570" /><path
             style="fill:#2ab2fe;fill-opacity:1"
             d="m 43.530131,-116.74564 c 0.93747,-0.94589 1.76403,-1.71979 1.83679,-1.71979 0.0728,0 -0.63473,0.7739 -1.57221,1.71979 -0.93748,0.94588 -1.76404,1.71979 -1.8368,1.71979 -0.0728,0 0.63474,-0.77391 1.57222,-1.71979 z"
             id="path569" /><path
             style="fill:#2ab2fe;fill-opacity:1"
             d="m 67.479341,-88.825329 c -0.27358,-0.44266 -0.41478,-2.16339 -0.16485,-2.00892 0.1305,0.0806 0.30928,-0.041 0.39729,-0.27036 0.26317,-0.68581 0.18588,-33.493851 -0.0785,-33.330441 -0.3871,0.23924 -1.97528,2.74203 -3.45206,5.44006 -0.75669,1.38245 -1.85686,3.23532 -2.44482,4.11749 l -1.06902,1.60394 -2.02018,0.43775 c -1.1111,0.24077 -5.23487,1.20139 -9.16393,2.13473 -3.92906,0.93334 -8.73281,2.0745 -10.675,2.53591 -1.94219,0.46141 -3.6513,0.79891 -3.79803,0.75 -0.38182,-0.12727 1.29882,-2.22562 2.683,-3.34983 0.64601,-0.52467 1.08533,-0.8049 0.97627,-0.62272 -0.26579,0.44397 1.03081,0.92904 1.94602,0.72803 0.38369,-0.0843 1.31285,-0.69142 2.06481,-1.34921 0.75195,-0.65779 2.88789,-2.02398 4.74652,-3.03599 6.34285,-3.4536 19.36955,-10.96108 19.37809,-11.16789 0.005,-0.11348 -3.17639,-0.1949 -7.06908,-0.18094 l -7.0776,0.0254 -9.03304,-9.34406 -9.03305,-9.34407 1.09555,-0.0856 c 1.31397,-0.10263 3.08583,0.42376 2.91601,0.86632 -0.26189,0.68246 1.14115,1.80866 4.10725,3.29682 1.70897,0.85742 5.24154,2.77689 7.85016,4.26548 2.60863,1.48858 6.29077,3.47204 8.18254,4.40768 1.89177,0.93564 3.68538,1.93206 3.9858,2.21428 1.52884,1.43621 2.98711,-0.32184 1.73516,-2.09186 -0.27321,-0.38627 -1.22662,-2.16082 -2.1187,-3.94345 -0.89208,-1.78263 -1.76988,-3.24297 -1.95066,-3.2452 -0.24042,-0.003 -0.24681,-0.0562 -0.0238,-0.19844 0.28573,-0.18216 1.0099,-2.52939 5.28427,-17.12772 0.93738,-3.20146 1.83609,-6.2302 1.99714,-6.73054 l 0.29282,-0.90971 0.6245,0.72603 c 0.34347,0.39931 0.6245,1.0073 0.6245,1.35109 0,0.34378 0.0708,0.84316 0.15725,1.10972 0.11773,0.36285 0.0928,0.39444 -0.0992,0.12569 -0.18772,-0.26275 -0.30713,-0.27702 -0.44544,-0.0532 -0.2994,0.48444 -0.16099,31.23501 0.14315,31.8033 0.40472,0.75622 0.63582,0.59532 0.97696,-0.68015 0.1723,-0.64423 0.95269,-2.11037 1.7342,-3.25808 1.97648,-2.90265 3.28239,-5.31907 3.49111,-6.45985 0.17409,-0.95154 0.18526,-0.95913 0.68137,-0.46302 0.2774,0.2774 0.63104,0.50437 0.78586,0.50437 0.15482,0 1.97052,-0.41295 4.03489,-0.91766 7.61593,-1.862 20.668959,-4.87687 20.752579,-4.79324 0.0474,0.0475 -0.0577,0.40223 -0.23365,0.78841 -0.37675,0.82687 -1.577169,1.61311 -2.874889,1.88298 -1.36927,0.28474 -3.93645,1.50054 -6.81755,3.22875 -1.40337,0.8418 -6.47379,3.73321 -11.26759,6.42534 -4.79381,2.69214 -8.84663,5.10315 -9.00627,5.35781 -0.21115,0.33683 -0.20988,0.58922 0.005,0.92605 0.37672,0.59143 1.79577,0.58136 3.9357,-0.0279 1.3076,-0.3723 2.18597,-0.4204 4.98171,-0.27283 l 3.39422,0.17917 1.89745,-1.82437 1.89746,-1.82438 -1.81376,1.88676 c -1.35503,1.40957 -1.77326,2.01434 -1.65365,2.3912 0.088,0.27744 2.85348,3.05981 6.14538,6.18303 7.72072,7.3251 12.380039,12.19266 11.939089,12.47267 -0.59911,0.38045 -2.689799,0.22516 -4.033729,-0.29962 -0.7276,-0.28412 -1.11456,-0.52215 -0.8599,-0.52895 0.54467,-0.0146 0.55261,-0.0554 0.17277,-0.8891 -0.30359,-0.66631 -1.38567,-1.30492 -13.0712,-7.71419 -3.4925,-1.91556 -6.95533,-3.91838 -7.69517,-4.45071 -1.58908,-1.14336 -3.44467,-2.02569 -4.27723,-2.03382 -0.50386,-0.005 -0.59531,0.13493 -0.59531,0.91031 0,1.83409 1.21582,4.26345 3.99504,7.98259 l 0.81715,1.0935 -0.9387,1.95163 c -0.51628,1.07339 -1.42876,3.79109 -2.02774,6.03933 -0.59897,2.24824 -1.13798,4.1669 -1.1978,4.26369 -0.0598,0.0968 -0.71216,2.363891 -1.44964,5.038001 -2.16945,7.8664 -2.09124,7.64014 -2.64105,7.64014 -0.27213,0 -0.56638,-0.11584 -0.65388,-0.25742 z"
             id="path568" /></g><g
           id="g575"
           transform="matrix(0.0789702,0,0,0.0789702,273.59228,142.18885)"><path
             style="fill:#85ceff;fill-opacity:1"
             d="m 206.30226,-10.820979 -0.0789,-16.6819 1.40184,0.19044 c 5.86157,0.79633 10.1387,4.09917 12.91899,9.97618 0.43205,0.91328 0.78564,1.82043 0.78576,2.01589 1.5e-4,0.26296 -13.80417,19.8623298 -14.78821,20.9962898 -0.0883,0.10175 -0.19606,-7.32185 -0.23946,-16.4968998 z"
             id="path343" /><path
             style="fill:#85ceff;fill-opacity:1"
             d="m 203.73534,6.2119808 c -1.6454,-0.28507 -5.37347,-1.34784 -9.92187,-2.82847 -2.83766,-0.92373 -8.19547,-2.66278998 -11.90625,-3.86457998 -3.75971,-1.21764002 -7.01045,-2.42047002 -7.34219,-2.71673002 -0.83147,-0.74256 -0.74745,-1.52744 0.39688,-3.70722 1.93664,-3.6890398 5.62092,-6.3817098 10.21316,-7.4643298 3.58785,-0.84584 4.59656,-0.19744 8.59917,5.5275298 1.44176,2.06217 4.42685,6.23409 6.63354,9.27093002 2.20669,3.03684998 3.97719,5.60096998 3.93445,5.69803998 -0.0428,0.0971 -0.31584,0.13525 -0.60689,0.0848 z"
             id="path342" /><path
             style="fill:#85ceff;fill-opacity:1"
             d="m 227.54784,14.486121 c -1.89177,-0.62985 -7.36864,-2.41826 -12.17083,-3.97425 -4.80219,-1.5559902 -8.81799,-2.9089202 -8.924,-3.0065202 -0.10602,-0.0976 1.85851,-0.85123 4.36562,-1.67475 15.30892,-5.02854998 26.58864,-8.67406 26.83873,-8.67406 0.47781,0 0.9613,2.62461002 0.95216,5.16874 -0.0109,3.04487 -0.78328,5.59431 -2.48403,8.1995902 -1.37956,2.11328 -4.22347,5.16523 -4.7798,5.12947 -0.19704,-0.0127 -1.90608,-0.53837 -3.79785,-1.16822 z"
             id="path340" /><path
             style="fill:#85ceff;fill-opacity:1"
             d="m 183.81498,32.721231 c -3.45283,-3.46822 -4.75087,-7.00782 -4.45529,-12.14907 0.2617,-4.55213 -0.69965,-3.79953 9.03113,-7.07 4.64204,-1.56017 9.65711,-3.32581 11.14461,-3.9236402 1.4875,-0.59783 2.96931,-1.04774 3.29291,-0.99979 0.90595,0.13424 1.25459,0.88278 0.77471,1.6633702 -0.55368,0.90066 -16.93557,23.73863 -17.35811,24.19892 -0.29151,0.31756 -0.66437,0.0537 -2.42996,-1.71979 z"
             id="path337" /><path
             style="fill:#85ceff;fill-opacity:1"
             d="m 213.26034,37.722551 c -3.24418,-0.72608 -6.91235,-2.46129 -7.32912,-3.467 -0.20953,-0.50562 -0.27788,-4.32852 -0.23046,-12.88964 0.0371,-6.69396 0.10498,-12.2093802 0.15089,-12.2564902 0.0459,-0.0471 0.44187,0.0997 0.8799,0.32619 0.45506,0.23532 1.21469,1.1004002 1.77227,2.0182602 1.66375,2.73883 7.14959,10.43904 11.74296,16.48303 2.41486,3.17748 4.5047,5.93872 4.64411,6.13608 0.52934,0.7494 -2.11346,2.6004 -4.86555,3.40779 -1.34787,0.39543 -5.42709,0.54122 -6.765,0.24178 z"
             id="path336" /><path
             style="fill:#2ab2fe;fill-opacity:1"
             d="m 207.78677,-27.365579 c 0.19099,-0.0764 0.4192,-0.067 0.50711,0.0209 0.0879,0.0879 -0.0684,0.15045 -0.34726,0.13896 -0.30823,-0.0127 -0.37092,-0.0754 -0.15985,-0.15985 z"
             id="path567" /><path
             style="fill:#2ab2fe;fill-opacity:1"
             d="m 216.55338,-23.149949 -0.9118,-0.99218 0.99219,0.9118 c 0.92351,0.84868 1.11384,1.07257 0.9118,1.07257 -0.0442,0 -0.4907,-0.44648 -0.99219,-0.99219 z"
             id="path566" /><path
             style="fill:#2ab2fe;fill-opacity:1"
             d="m 238.58943,0.59641082 c 0,-0.50932 0.0544,-0.71768 0.121,-0.46302 0.0666,0.25466 0.0666,0.67138 0,0.92603998 -0.0666,0.25466 -0.121,0.0463 -0.121,-0.46301998 z"
             id="path565" /><path
             style="fill:#2ab2fe;fill-opacity:1"
             d="m 238.58943,3.7714108 c 0,-0.50932 0.0544,-0.71768 0.121,-0.46302 0.0666,0.25466 0.0666,0.67138 0,0.92604 -0.0666,0.25466 -0.121,0.0463 -0.121,-0.46302 z"
             id="path564" /><path
             style="fill:#2ab2fe;fill-opacity:1"
             d="m 234.427,12.767241 c 0.26339,-0.29104 0.53842,-0.52916 0.61118,-0.52916 0.0728,0 -0.0832,0.23812 -0.3466,0.52916 -0.26339,0.29104 -0.53842,0.52917 -0.61118,0.52917 -0.0728,0 0.0832,-0.23813 0.3466,-0.52917 z"
             id="path563" /><path
             style="fill:#2ab2fe;fill-opacity:1"
             d="m 179.28226,18.962901 c 0.0127,-0.30822 0.0754,-0.37092 0.15986,-0.15985 0.0764,0.191 0.067,0.4192 -0.0209,0.50712 -0.0879,0.0879 -0.15046,-0.0683 -0.13897,-0.34727 z"
             id="path562" /><path
             style="fill:#2ab2fe;fill-opacity:1"
             d="m 179.30316,24.408911 c 0,-0.3638 0.06,-0.51263 0.13345,-0.33073 0.0734,0.1819 0.0734,0.47956 0,0.66146 -0.0734,0.1819 -0.13345,0.0331 -0.13345,-0.33073 z"
             id="path561" /><path
             style="fill:#2ab2fe;fill-opacity:1"
             d="m 183.48048,32.677141 -0.9118,-0.99219 0.99218,0.9118 c 0.92351,0.84868 1.11384,1.07258 0.9118,1.07258 -0.0442,0 -0.4907,-0.44649 -0.99218,-0.99219 z"
             id="path560" /><path
             style="fill:#2ab2fe;fill-opacity:1"
             d="m 191.11813,37.529101 c -1.58209,-0.45528 -3.30574,-1.2973 -4.30602,-2.10354 l -0.78364,-0.63163 8.58885,-11.95434 c 4.72387,-6.57489 8.76745,-12.24424 8.98573,-12.59856 0.47998,-0.7791202 0.131,-1.5278102 -0.77471,-1.6620102 -0.3236,-0.048 -1.79972,0.39958 -3.28027,0.99452 -1.48054,0.5949302 -6.56142,2.3852402 -11.29085,3.9784702 l -8.59896,2.89679 -1.15379,-1.24547 c -5.04266,-5.4433302 -6.87831,-10.5829702 -5.75672,-16.11823018 0.47131,-2.32606002 1.19338,-4.33050002 1.21161,-3.36346002 0.006,0.30206 0.27825,0.78844 0.60567,1.08085 0.33218,0.29666 3.5775,1.49631 7.34219,2.71408002 3.71078,1.20034 8.89,2.87980998 11.50937,3.73215998 7.31069,2.37892 10.98021,3.34156 10.98021,2.88047 0,-0.12315 -1.5857,-2.40067 -3.52378,-5.06116 -1.93807,-2.66049 -4.81561,-6.68272 -6.39452,-8.9383 -1.57891,-2.2555698 -3.23766,-4.5025298 -3.68612,-4.9932398 -0.90152,-0.98648 -2.57244,-1.86551 -3.59349,-1.89047 -0.59812,-0.0146 -0.57278,-0.0546 0.26458,-0.41728 1.34833,-0.58403 2.22727,-1.51705 4.1102,-4.36312 0.92278,-1.39479 2.39683,-3.20169 3.27567,-4.01534 2.61814,-2.42393 6.30232,-3.89972 9.73534,-3.89972 h 1.66421 l 0.0661,9.98803 c 0.0364,5.49341 0.039,13.0154998 0.006,16.71574982 -0.0331,3.70024998 0.0391,6.61727998 0.16054,6.48228998 0.67892,-0.75475 14.84865,-20.7418498 14.84865,-20.9447398 0,-0.61244 6.83541,1.18083 9.101,2.38765 3.18327,1.69564 5.86557,4.8480798 7.04711,8.2822698 0.2871,0.83449 0.49193,1.53175 0.45517,1.54948 -0.0367,0.0177 -2.15042,0.70382 -4.69703,1.52465 -17.27833,5.56913 -26.95769,8.80857 -26.78787,8.96521 0.10848,0.10006 4.1263,1.45493 8.92849,3.0108202 4.80219,1.55589 10.37416,3.36444 12.38216,4.01899 3.12267,1.01789 3.71604,1.13909 4.10104,0.83766 0.39962,-0.31288 0.41167,-0.30322 0.10738,0.086 -0.27506,0.35188 -0.28104,0.79282 -0.0303,2.23291 0.37113,2.13117 0.18006,5.93473 -0.40845,8.13103 -0.94569,3.52927 -2.64546,6.07058 -5.60053,8.37326 -1.00105,0.78005 -1.58697,1.15321 -1.30205,0.82925 0.3602,-0.40954 0.44082,-0.69836 0.26459,-0.94785 -0.13941,-0.19736 -2.22925,-2.9586 -4.64411,-6.13608 -4.59337,-6.04399 -10.07921,-13.7442 -11.74296,-16.48303 -0.55758,-0.91786 -1.31721,-1.7829402 -1.77227,-2.0182602 -0.43803,-0.22651 -0.83399,-0.3733 -0.8799,-0.32619 -0.0459,0.0471 -0.12102,5.5625302 -0.16691,12.2564902 -0.0746,10.88331 -0.0373,12.2618 0.35237,13.03073 0.43081,0.85006 0.42867,0.8599 -0.18715,0.8599 -0.34263,0 -2.08967,0.5553 -3.88233,1.23399 -3.12705,1.18391 -3.38826,1.23727 -6.43437,1.31458 -2.10246,0.0534 -3.59392,-0.04 -4.41513,-0.2763 z"
             id="path559" /><path
             style="fill:#2ab2fe;fill-opacity:1"
             d="m 215.71248,37.975491 c 0.47555,-0.0589 1.18992,-0.0577 1.5875,0.003 0.39757,0.0604 0.008,0.10855 -0.86464,0.10707 -0.87312,-10e-4 -1.19841,-0.0509 -0.72286,-0.10977 z"
             id="path558" /></g><g
           id="g574"
           transform="matrix(0.0789702,0,0,0.0789702,273.97209,142.61239)"><path
             style="fill:#85ceff;fill-opacity:1"
             d="m 322.59683,125.6353 c -1.1292,-0.493 -3.2128,-1.54676 -4.63021,-2.34169 -1.41741,-0.79494 -3.64867,-2.01414 -4.95836,-2.70934 -4.40234,-2.33682 -13.62845,-7.59434 -13.79242,-7.85964 -0.0893,-0.14454 0.0612,-0.48641 0.33447,-0.7597 0.48614,-0.48613 0.70574,-0.44833 10.14351,1.74648 5.30563,1.23386 9.71787,2.24338 9.80496,2.24338 0.0871,0 0.37052,0.44648 0.62984,0.99218 0.25932,0.54571 1.19404,2.18282 2.07714,3.63802 1.53481,2.52911 2.84104,5.14801 2.84104,5.69609 0,0.38602 -0.21867,0.32838 -2.44997,-0.64578 z"
             id="path258" /><path
             style="fill:#85ceff;fill-opacity:1"
             d="m 327.42805,110.58374 c 0,-9.49183 0.10143,-16.853949 0.23219,-16.853949 0.1277,0 0.36741,0.16293 0.53267,0.36206 0.29461,0.35498 6.37889,21.119919 6.37889,21.770409 0,0.30126 -6.36843,10.73501 -6.91187,11.32409 -0.13299,0.14416 -0.23188,-6.93653 -0.23188,-16.60261 z"
             id="path256" /><path
             style="fill:#85ceff;fill-opacity:1"
             d="m 336.29159,128.37729 c -1.4552,-0.26598 -3.33044,-0.491 -4.16718,-0.50005 -0.83675,-0.009 -1.51855,-0.10574 -1.51511,-0.21488 0.01,-0.31696 24.73685,-14.61823 25.2749,-14.61823 0.15526,0 0.49175,0.15316 0.74776,0.34036 0.41913,0.30647 -0.26369,1.09668 -6.85881,7.9375 l -7.32428,7.59714 -1.75572,-0.0291 c -0.96565,-0.016 -2.94635,-0.24674 -4.40156,-0.51272 z"
             id="path252" /><path
             style="fill:#85ceff;fill-opacity:1"
             d="m 297.53508,144.80289 c -0.31363,-0.19831 0.0844,-0.73934 1.99193,-2.70792 1.31113,-1.35306 4.5646,-4.7432 7.22993,-7.53364 l 4.84606,-5.07354 1.76097,-0.29338 c 1.01904,-0.16978 4.09232,-0.26168 7.29449,-0.21813 l 5.53353,0.0753 -8.84082,5.14583 c -4.86245,2.8302 -10.55839,6.20891 -12.65762,7.50823 -5.21361,3.22695 -6.2466,3.6739 -7.15847,3.0973 z"
             id="path230" /><path
             style="fill:#85ceff;fill-opacity:1"
             d="m 351.37284,145.97485 c -2.18281,-0.50225 -6.40953,-1.58445 -9.3927,-2.40489 -2.98318,-0.82043 -5.68061,-1.54717 -5.99429,-1.61498 -0.36754,-0.0795 -1.03922,-0.89016 -1.88904,-2.28004 -0.72529,-1.18621 -1.86762,-2.6558 -2.53852,-3.26576 -1.09197,-0.99278 -1.21982,-1.22926 -1.21982,-2.25623 0,-1.33018 0.58659,-2.32329 1.37226,-2.32329 0.55574,0 5.9612,3.01312 17.01628,9.48524 3.34698,1.95946 6.65767,3.85121 7.3571,4.20387 0.69942,0.35267 1.226,0.78041 1.17017,0.95053 -0.1866,0.5686 -1.88025,0.42621 -5.88144,-0.49445 z"
             id="path228" /><path
             style="fill:#85ceff;fill-opacity:1"
             d="m 326.11355,164.06204 c -0.005,-0.0985 -1.3181,-4.84532 -2.91883,-10.54854 -1.60073,-5.70323 -2.90926,-10.74235 -2.90783,-11.19805 0.003,-1.11887 1.0677,-3.33027 2.61741,-5.4389 0.70319,-0.9568 1.57231,-2.27542 1.93138,-2.93027 0.35907,-0.65484 0.81784,-1.19062 1.01948,-1.19062 0.97626,0 1.03581,0.91007 1.03982,15.89057 0.003,12.40345 -0.0538,14.64397 -0.38456,15.08126 -0.21365,0.28247 -0.39224,0.43302 -0.39687,0.33455 z"
             id="path213" /><path
             style="fill:#2ab2fe;fill-opacity:1"
             d="m 328.24836,94.180731 c -0.33467,-0.55729 -0.32903,-0.56293 0.12656,-0.12655 0.26226,0.25119 0.41989,0.51367 0.35028,0.58327 -0.0696,0.0696 -0.28418,-0.13591 -0.47684,-0.45672 z"
             id="path557" /><path
             style="fill:#2ab2fe;fill-opacity:1"
             d="m 347.80097,123.29031 c 0,-0.04 0.92273,-0.96275 2.05052,-2.05052 l 2.05052,-1.97775 -1.97775,2.05052 c -1.8369,1.90448 -2.12329,2.17124 -2.12329,1.97775 z"
             id="path556" /><path
             style="fill:#2ab2fe;fill-opacity:1"
             d="m 304.4093,136.84032 c 0,-0.0728 0.71438,-0.83922 1.5875,-1.70323 0.87313,-0.86402 1.5875,-1.51141 1.5875,-1.43865 0,0.0728 -0.71437,0.83922 -1.5875,1.70323 -0.87312,0.86402 -1.5875,1.51141 -1.5875,1.43865 z"
             id="path555" /><path
             style="fill:#2ab2fe;fill-opacity:1"
             d="m 300.17597,141.22251 c 0.79042,-0.80037 1.49666,-1.45521 1.56942,-1.45521 0.0728,0 -0.51442,0.65484 -1.30484,1.45521 -0.79042,0.80036 -1.49666,1.4552 -1.56942,1.4552 -0.0728,0 0.51442,-0.65484 1.30484,-1.4552 z"
             id="path554" /><path
             style="fill:#2ab2fe;fill-opacity:1"
             d="m 354.63053,146.73031 c 0.19099,-0.0764 0.4192,-0.067 0.50711,0.0209 0.0879,0.0879 -0.0684,0.15046 -0.34726,0.13897 -0.30823,-0.0127 -0.37092,-0.0754 -0.15985,-0.15985 z"
             id="path553" /><path
             style="fill:#2ab2fe;fill-opacity:1"
             d="m 326.64481,166.46346 c -0.62685,-1.38162 -0.65928,-2.04182 -0.13439,-2.73579 0.33075,-0.43729 0.38789,-2.67781 0.38456,-15.08126 -0.004,-14.9805 -0.0636,-15.89057 -1.03982,-15.89057 -0.20164,0 -0.66041,0.53578 -1.01948,1.19062 -0.35907,0.65485 -1.22819,1.97347 -1.93138,2.93027 -1.58962,2.16293 -2.61278,4.32379 -2.62146,5.5364 -0.004,0.50932 -0.0941,0.79504 -0.20103,0.63492 -0.66214,-0.99164 -1.09966,-0.93762 -10.01797,1.23691 -17.93388,4.37278 -16.22051,4.05649 -15.52523,2.86604 0.26289,-0.45012 0.9276,-1.22654 1.47712,-1.72539 0.86019,-0.78086 1.07718,-0.86522 1.56037,-0.60663 0.89588,0.47946 2.1134,-0.0417 6.71854,-2.8758 2.31864,-1.42695 8.19408,-4.91129 13.05653,-7.74298 l 8.84082,-5.14853 -5.53353,-0.0767 c -6.73546,-0.0933 -8.59161,0.15985 -9.89916,1.35026 l -0.92604,0.84308 0.90918,-0.98949 c 0.86681,-0.94337 0.89147,-1.02394 0.52917,-1.72902 -0.20901,-0.40675 -2.40408,-2.65706 -4.87793,-5.0007 -2.47386,-2.34364 -6.34339,-6.13686 -8.59896,-8.42937 -4.48701,-4.56049 -4.48753,-4.56179 -1.83396,-4.60262 1.21179,-0.0186 3.95063,0.64898 3.95063,0.96301 0,0.092 -0.19026,0.37759 -0.4228,0.63454 -0.23254,0.25695 -0.35446,0.57774 -0.27094,0.71288 0.26037,0.42129 9.00669,5.32138 20.66978,11.58015 2.37713,1.27564 4.89423,2.31916 5.09934,2.11405 0.24726,-0.24726 -0.9913,-2.86558 -2.69344,-5.69396 -0.92302,-1.53375 -1.9253,-3.27825 -2.22728,-3.87666 l -0.54905,-1.08802 0.88671,-2.88073 c 4.10893,-13.349069 5.43684,-17.783119 5.43684,-18.154289 0,-0.56045 0.70952,-1.26289 1.27567,-1.26294 0.41189,-4e-5 0.43904,1.233 0.37409,16.990139 -0.041,9.95252 0.0276,16.88445 0.16574,16.73493 0.45672,-0.49444 6.91575,-10.99999 6.91575,-11.2484 0,-0.13839 0.18065,-0.25163 0.40143,-0.25163 0.22079,0 4.83446,-1.01613 10.25261,-2.25807 13.98871,-3.20648 14.76003,-3.37231 14.92388,-3.20846 0.31091,0.31091 -1.02794,1.97 -3.00789,3.72731 -1.13565,1.00796 -1.59989,1.34124 -1.03164,0.74061 l 1.03319,-1.09204 -0.68821,-0.31357 c -0.77942,-0.35513 -0.72551,-0.38293 -12.49066,6.44221 -3.4925,2.02605 -7.92536,4.59549 -9.85079,5.70985 -1.92544,1.11437 -3.50302,2.11542 -3.50573,2.22456 -0.003,0.10914 0.62014,0.19923 1.38412,0.20019 0.76399,9.7e-4 2.75829,0.2383 4.43178,0.52741 1.67348,0.28911 3.69253,0.52645 4.48676,0.52742 1.30335,0.002 1.54822,-0.0949 2.51319,-0.99044 l 1.06914,-0.99219 -0.90369,0.98419 -0.9037,0.98419 2.21198,2.3231 c 1.21659,1.27771 5.43341,5.64488 9.37071,9.70481 l 7.15873,7.38171 -1.71979,-0.14474 c -0.94589,-0.0796 -2.24634,-0.38516 -2.88989,-0.679 -1.13549,-0.51846 -1.14783,-0.53687 -0.41728,-0.62238 1.18593,-0.13882 1.06583,-0.65125 -0.31594,-1.34797 -0.69943,-0.35266 -4.01012,-2.24441 -7.3571,-4.20387 -11.05508,-6.47212 -16.46054,-9.48524 -17.01628,-9.48524 -0.78489,0 -1.37226,0.99271 -1.37226,2.31925 0,1.02506 0.12997,1.26289 1.25788,2.30188 0.69184,0.63729 1.82567,2.09793 2.51963,3.24586 l 1.26174,2.08716 -0.77153,1.70365 c -0.81058,1.7899 -1.40132,3.6484 -3.23271,10.17032 -2.98114,10.61637 -3.85981,13.62862 -4.02309,13.7919 -0.0976,0.0976 -0.41514,-0.34622 -0.70558,-0.98636 z"
             id="path17" /></g><path
           d="m 279.0653,146.51472 c -0.34797,10e-4 -0.60282,0.0644 -0.88775,0.20655 -0.0923,0.0461 -0.34184,0.14483 -0.55468,0.21955 -0.80206,0.28156 -1.04776,0.42104 -1.32394,0.75181 -0.12904,0.15454 -0.21118,0.22349 -0.3947,0.3312 -0.15874,0.0932 -0.24467,0.16125 -0.27291,0.21617 -0.10025,0.19521 -0.26491,0.40833 -0.50036,0.64776 -0.27721,0.28191 -0.33306,0.38018 -0.33327,0.58612 -9e-5,0.14135 -0.0149,0.17338 -0.17722,0.38432 -0.0478,0.0622 -0.132,0.206 -0.18694,0.31952 -0.18488,0.382 -0.16142,0.64044 0.0952,1.04824 0.17896,0.28441 0.18106,0.34186 0.0248,0.67164 -0.0634,0.13382 -0.13422,0.324 -0.15742,0.42266 -0.0948,0.40327 0.0401,0.84251 0.27604,0.89814 0.084,0.0198 0.0991,0.0716 0.0995,0.34138 2.9e-4,0.20405 0.0662,0.53259 0.13513,0.67497 0.0467,0.0965 0.35778,0.30153 0.60049,0.39601 0.28699,0.11174 0.39701,0.17063 0.51287,0.27463 0.0918,0.0824 0.1106,0.0889 0.22659,0.0777 0.13494,-0.013 0.22156,-0.0726 0.30773,-0.21164 0.0327,-0.0528 0.0505,-0.0645 0.0583,-0.0388 0.18042,0.59445 0.39093,0.95813 0.77014,1.33053 0.22864,0.22453 0.2543,0.24167 0.54944,0.36668 0.38419,0.16274 0.60477,0.21656 0.90298,0.22041 0.19066,0.003 0.25081,-0.006 0.3364,-0.0519 0.26352,-0.13857 0.34456,-0.10921 0.6744,0.24449 0.13026,0.13968 0.4147,0.42066 0.63209,0.62437 0.21738,0.20372 0.41027,0.40576 0.42865,0.44897 0.021,0.0491 0.0721,0.0972 0.13682,0.12849 0.0568,0.0275 0.19856,0.13776 0.31497,0.2451 0.42045,0.38762 0.63673,0.56561 0.69074,0.56843 0.009,3e-4 0.0304,-0.0282 0.0494,-0.0635 0.0293,-0.0547 0.0285,-0.071 -0.005,-0.10959 -0.41945,-0.48377 -1.67244,-2.00123 -1.66148,-2.01219 0.009,-0.008 0.0357,-0.005 0.0611,0.009 0.0399,0.0202 1.36997,1.37834 1.79551,1.83331 0.16107,0.17222 0.26348,0.23012 0.36281,0.20518 0.035,-0.009 0.15084,-0.0968 0.25743,-0.1956 0.10656,-0.0989 0.22393,-0.18728 0.26077,-0.19652 0.11692,-0.0293 0.24956,0.0101 0.44998,0.13409 0.10707,0.0662 0.24114,0.14304 0.29789,0.17081 0.0568,0.0278 0.1496,0.0736 0.20635,0.10189 0.22201,0.11048 1.20081,0.15461 1.59165,0.0717 0.27501,-0.0583 0.54983,-0.38046 0.58082,-0.68081 0.0181,-0.17482 -8e-5,-0.24708 -0.0883,-0.35181 -0.125,-0.1486 -0.26146,-0.23039 -0.38442,-0.23039 -0.21512,0 -0.20429,-0.17166 0.0196,-0.30938 0.17708,-0.10896 0.18836,-0.1795 0.0513,-0.31927 -0.0586,-0.0597 -0.10644,-0.12851 -0.10644,-0.15288 0,-0.0244 0.0641,-0.0936 0.14256,-0.15379 0.1623,-0.12462 0.19668,-0.2017 0.12525,-0.28066 -0.0952,-0.10518 -0.13795,-0.11237 -0.74505,-0.12563 l -0.59343,-0.0129 0.23219,-0.0713 c 0.34811,-0.10706 0.96906,-0.35583 1.02315,-0.40992 0.066,-0.066 0.0593,-0.17299 -0.0179,-0.28666 -0.0557,-0.0819 -0.1468,-0.13652 -0.61272,-0.36719 -0.31088,-0.15389 -0.59186,-0.31104 -0.65047,-0.36371 -0.0886,-0.0797 -0.0942,-0.0901 -0.0388,-0.0746 0.2269,0.0639 0.3704,0.0734 0.6138,0.0404 0.44961,-0.0608 0.66551,-0.0622 0.99886,-0.006 0.43187,0.072 0.58608,0.0364 0.76935,-0.17777 0.15498,-0.18106 0.15086,-0.3611 -0.0148,-0.64509 -0.1212,-0.20764 -0.4664,-0.69116 -0.49674,-0.69567 -0.0141,-0.003 -0.0707,-0.0549 -0.12575,-0.11742 l -0.1,-0.11351 -0.005,-0.34199 c -0.006,-0.38838 -0.0295,-0.46571 -0.13837,-0.45315 -0.0509,0.006 -0.0941,0.0451 -0.16316,0.1486 -0.0736,0.11022 -0.11527,0.14658 -0.19289,0.16835 -0.10971,0.0308 -0.21621,0.16001 -0.21621,0.26243 0,0.10808 -0.14696,0.52121 -0.23315,0.65556 -0.12046,0.18775 -0.2926,0.28176 -0.51644,0.28208 -0.227,2.9e-4 -0.38976,-0.0822 -0.59949,-0.30364 -0.27205,-0.28737 -0.31324,-0.32484 -0.48081,-0.43714 -0.40332,-0.27028 -1.10927,-0.44558 -1.79491,-0.44569 -0.28917,-5e-5 -1.57576,0.0798 -2.08975,0.1296 -0.85602,0.0831 -1.44066,0.18719 -1.68023,0.29931 -0.1457,0.0682 -0.34615,0.2657 -0.41394,0.40786 -0.024,0.0503 -0.0649,0.0982 -0.091,0.10643 -0.0687,0.0217 -0.3044,-0.0622 -0.3044,-0.10845 0,-0.0211 0.10745,-0.14611 0.23864,-0.27795 0.35682,-0.35841 0.52652,-0.43779 1.41251,-0.66075 0.46592,-0.1173 1.2349,-0.2745 1.45766,-0.29806 0.0851,-0.009 0.24186,-0.0379 0.34829,-0.064 0.31799,-0.0784 0.67151,-0.13625 1.41896,-0.23235 0.35013,-0.0451 0.75889,-0.11136 1.89625,-0.30763 0.15609,-0.0269 0.44632,-0.0677 0.64498,-0.0905 0.50642,-0.0582 0.51715,-0.0604 0.56143,-0.11023 0.0976,-0.10984 0.12957,-0.53079 0.0585,-0.76879 -0.0482,-0.16128 -0.42641,-0.75432 -0.70243,-1.1015 -0.39712,-0.49954 -0.94237,-0.98476 -1.47882,-1.31607 -0.43903,-0.27113 -1.05858,-0.52255 -1.59899,-0.64886 -0.43118,-0.10075 -0.42719,-0.0978 -0.41884,-0.3049 0.004,-0.10303 -0.005,-0.17763 -0.0213,-0.18815 -0.0155,-0.0101 -0.0952,-0.0331 -0.17702,-0.0521 -0.0818,-0.0191 -0.28115,-0.0999 -0.44301,-0.17953 -0.24943,-0.12273 -0.30805,-0.14226 -0.38458,-0.12769 -0.14846,0.0283 -0.35351,0.026 -0.74102,-0.008 -0.14125,-0.0126 -0.26757,-0.0187 -0.38356,-0.0182 z m 6.09891,5.69076 c -0.0314,5.5e-4 -0.0712,0.023 -0.12412,0.062 -0.0914,0.0674 -0.16644,0.0824 -0.19349,0.0386 -0.0134,-0.0217 -0.11565,-0.0388 -0.11628,-0.0193 -1e-4,0.004 -0.0349,0.19219 -0.0771,0.41923 -0.0896,0.48058 -0.091,0.50526 -0.0354,0.62271 0.0716,0.15078 0.22395,0.2014 0.37349,0.12411 0.0427,-0.0221 0.12209,-0.10896 0.17646,-0.19312 0.12854,-0.19889 0.1644,-0.38944 0.12763,-0.67856 -0.0345,-0.27114 -0.0622,-0.3767 -0.13121,-0.37564 z m -7.65895,1.55148 c 0.18406,0.001 0.33005,0.0654 0.39147,0.18015 0.0249,0.0465 0.0742,0.19411 0.0669,0.19883 -1.9e-4,1e-4 -5.5e-4,1e-4 -0.001,0 -0.003,-0.001 -0.0981,-0.0478 -0.21225,-0.10378 -0.26285,-0.1289 -0.42554,-0.15158 -0.58149,-0.0811 -0.0626,0.0283 -0.14,0.0766 -0.17193,0.10732 -0.0491,0.0472 -0.0581,0.0491 -0.0581,0.0128 0,-0.0237 0.0494,-0.0924 0.10959,-0.15268 0.0886,-0.0885 0.13876,-0.11566 0.26142,-0.14104 0.068,-0.0141 0.13366,-0.0207 0.19501,-0.0203 z m 0.62881,0.54501 c 0.026,-5.5e-4 0.0535,0.009 0.0822,0.0272 0.0992,0.065 0.14751,0.23856 0.10038,0.36139 -0.016,0.0419 -0.0657,0.054 -0.0961,0.0236 -0.009,-0.009 -0.0172,-0.0479 -0.0172,-0.0854 0,-0.0375 -0.0163,-0.0905 -0.0362,-0.1178 -0.0346,-0.0473 -0.0404,-0.0476 -0.12626,-0.006 l -0.09,0.0429 0.041,-0.10429 c 0.036,-0.0917 0.0852,-0.13959 0.14224,-0.14099 z m 0.45597,0.32713 c 0.0126,3e-4 0.0246,0.003 0.0374,0.008 0.0306,0.0114 0.0404,0.0539 0.0404,0.17262 0,0.15321 0.004,0.16057 0.12899,0.29352 0.13765,0.14556 0.15735,0.2047 0.0818,0.24515 -0.0343,0.0184 -0.0677,0.0128 -0.1226,-0.0208 -0.10454,-0.0638 -0.26652,-0.24873 -0.3108,-0.35474 -0.0641,-0.15365 0.0269,-0.34707 0.14487,-0.3435 z m 0.37947,2.37575 c -0.0562,0.001 -0.10618,0.0335 -0.16905,0.0962 -0.1884,0.18839 -0.16209,0.3114 0.092,0.42996 0.0821,0.0383 0.18611,0.0866 0.23113,0.10745 0.0451,0.0208 0.12629,0.0771 0.1806,0.12512 0.0813,0.0718 0.0896,0.0874 0.0472,0.0876 -0.0553,5.6e-4 -0.55091,-0.16737 -1.13256,-0.38351 -0.57281,-0.21288 -0.73869,-0.25364 -1.04406,-0.25663 -0.26301,-0.003 -0.39042,0.0126 -0.39042,0.0448 0,0.0304 0.73194,0.45572 0.94033,0.54642 0.12919,0.0562 0.25805,0.13737 0.34828,0.21929 0.10341,0.0939 0.18629,0.1431 0.29805,0.17717 0.21376,0.0651 0.46654,0.18841 0.79268,0.38653 0.15218,0.0924 0.35964,0.20448 0.46101,0.24898 0.10139,0.0444 0.27865,0.13636 0.39404,0.20412 0.1154,0.0678 0.43621,0.23893 0.71291,0.38034 0.2767,0.14141 0.58274,0.30619 0.68009,0.36618 0.0974,0.06 0.70059,0.37716 1.34051,0.70484 0.77864,0.39873 1.18945,0.62325 1.24195,0.67874 0.0432,0.0456 0.15152,0.1197 0.24086,0.16478 0.0893,0.0451 0.16895,0.0989 0.17691,0.11957 0.008,0.0207 0.0469,0.0376 0.0864,0.0376 0.059,0 0.0787,-0.0173 0.1101,-0.0967 0.10391,-0.26303 0.15813,-0.56605 0.13122,-0.73432 -0.0143,-0.0889 -0.0385,-0.11969 -0.17404,-0.22045 -0.0866,-0.0644 -0.29098,-0.1792 -0.45416,-0.25502 -0.16318,-0.0757 -0.37215,-0.17725 -0.46439,-0.22544 -0.0923,-0.0482 -0.34183,-0.16122 -0.55468,-0.25118 -0.40663,-0.17188 -2.26394,-1.08409 -2.56365,-1.25913 -0.14563,-0.0851 -0.19336,-0.13147 -0.28585,-0.2778 -0.12626,-0.19969 -0.85418,-0.93589 -1.0674,-1.07949 -0.0874,-0.0588 -0.14971,-0.0877 -0.20589,-0.0862 z"
           style="fill:#ffffff;fill-opacity:1;stroke:#ffffff;stroke-width:0.0851377;stroke-dasharray:none;stroke-opacity:1"
           id="path1-7" /></g></g></g></svg>
